<svg width="24" height="24" viewBox="0 0 24 24" fill="none" xmlns="http://www.w3.org/2000/svg">
    <path fill-rule="evenodd" clip-rule="evenodd" d="M5 14C5 16.8 7.73333 19 12 19C14.5527 19 16.5088 18.2436 17.7143 17.0133C18.1008 16.6188 18.0943 15.9856 17.6999 15.5991C17.3054 15.2126 16.6722 15.2191 16.2857 15.6136C15.5586 16.3557 14.1813 17 12 17C10.9635 17 10.1171 16.8612 9.43515 16.6351C10.3675 16.1262 11 15.137 11 14C11 12.3431 9.65685 11 8 11C6.34315 11 5 12.3431 5 14ZM7 14C7 13.4477 7.44772 13 8 13C8.55228 13 9 13.4477 9 14C9 14.5523 8.55228 15 8 15C7.44772 15 7 14.5523 7 14Z" fill="#0E0E10"/>
    <path fill-rule="evenodd" clip-rule="evenodd" d="M14.5649 7.3649C13.6325 7.87375 13 8.86301 13 10C13 11.6569 14.3431 13 16 13C17.6569 13 19 11.6569 19 10C19 7.2 16.2667 5 12 5C9.44729 5 7.49123 5.75636 6.28571 6.98674C5.8992 7.38123 5.90566 8.01436 6.30015 8.40088C6.69463 8.7874 7.32777 8.78094 7.71429 8.38645C8.44142 7.64432 9.8187 7 12 7C13.0365 7 13.8829 7.13875 14.5649 7.3649ZM17 10C17 10.5523 16.5523 11 16 11C15.4477 11 15 10.5523 15 10C15 9.44771 15.4477 9 16 9C16.5523 9 17 9.44771 17 10Z" fill="#0E0E10"/>
    </svg>
    