<svg width="24" height="24" viewBox="0 0 24 24" fill="none" xmlns="http://www.w3.org/2000/svg">
    <path d="M8.3999 2.14941C8.64845 1.81823 9.1184 1.75158 9.44971 2C9.78107 2.24852 9.8486 2.71844 9.6001 3.0498L7.38916 5.99707H5.96436C5.80435 5.99709 5.64708 6.00802 5.49268 6.02637L8.3999 2.14941ZM14.5503 2C14.8816 1.75159 15.3516 1.81822 15.6001 2.14941L18.5073 6.02637C18.3527 6.00799 18.1949 5.99707 18.0347 5.99707H16.6108L14.3999 3.0498C14.1514 2.71843 14.2189 2.24852 14.5503 2Z" fill="#2A2A2E"/>
    <path d="M18.0351 5.99707H5.96486C3.72938 5.99707 1.99546 7.84108 2.00001 9.99707H22C22.0045 7.84108 20.2706 5.99707 18.0351 5.99707Z" fill="#2A2A2E"/>
    <path d="M22 10.0039C21.999 10.2671 21.9721 10.535 21.917 10.8047L20.2822 18.8047C19.9024 20.6632 18.2807 21.997 16.4004 21.9971H7.59961C5.71931 21.997 4.09759 20.6632 3.71777 18.8047L2.08301 10.8047C2.02792 10.535 2.001 10.2671 2 10.0039H22ZM9 17.2471C8.58579 17.2471 8.25 17.5829 8.25 17.9971C8.25026 18.4111 8.58595 18.7471 9 18.7471H15C15.4141 18.7471 15.7497 18.4111 15.75 17.9971C15.75 17.5829 15.4142 17.2471 15 17.2471H9ZM8 13.2471C7.58579 13.2471 7.25 13.5829 7.25 13.9971C7.25 14.4113 7.58579 14.7471 8 14.7471H16C16.4142 14.7471 16.75 14.4113 16.75 13.9971C16.75 13.5829 16.4142 13.2471 16 13.2471H8Z" fill="#2A2A2E"/>
    </svg>
    