<svg width="39" height="38" viewBox="0 0 39 38" fill="none" xmlns="http://www.w3.org/2000/svg">
    <path d="M8.632 12.4959H0.644165V37.8171H8.632V12.4959Z" fill="black"/>
    <path d="M30.2397 11.947C29.9452 11.9105 29.6323 11.8922 29.3194 11.8739C24.847 11.6909 22.3255 14.3255 21.4421 15.4598C21.2028 15.7708 21.0924 15.9538 21.0924 15.9538V12.5691H13.4542V37.8902H21.0924H21.4421C21.4421 35.3106 21.4421 32.7492 21.4421 30.1695C21.4421 28.779 21.4421 27.3886 21.4421 25.9981C21.4421 24.2783 21.3132 22.4487 22.1783 20.8753C22.9145 19.558 24.2396 18.8994 25.7304 18.8994C30.1477 18.8994 30.2397 22.8695 30.2397 23.2354C30.2397 23.2537 30.2397 23.272 30.2397 23.272V38H38.2275V21.4791C38.2275 15.8257 35.3379 12.4959 30.2397 11.947Z" fill="black"/>
    <path d="M4.63808 9.221C7.19963 9.221 9.27619 7.15681 9.27619 4.6105C9.27619 2.06419 7.19963 0 4.63808 0C2.07654 0 0 2.06419 0 4.6105C0 7.15681 2.07654 9.221 4.63808 9.221Z" fill="black"/>
    </svg>
    