<svg width="193" height="33" viewBox="0 0 193 33" fill="none" xmlns="http://www.w3.org/2000/svg">
    <path d="M7.49166 25.4105C7.05166 25.4105 6.58966 25.3225 6.10566 25.1465C5.64366 24.9485 5.20366 24.6075 4.78566 24.1235C4.36766 23.6175 4.00466 22.8915 3.69666 21.9455L0.231656 11.0885C0.0776563 10.5825 0.0996563 10.1205 0.297656 9.70248C0.495656 9.26248 0.814656 8.92148 1.25466 8.67948C1.69466 8.41548 2.17866 8.28348 2.70666 8.28348C3.19066 8.28348 3.63066 8.40448 4.02666 8.64648C4.44466 8.88848 4.73066 9.26248 4.88466 9.76848L8.11866 20.6915C8.95466 19.3055 9.50466 17.9305 9.76866 16.5665C10.0547 15.1805 10.1977 13.8495 10.1977 12.5735C10.1977 12.1775 10.1867 11.7925 10.1647 11.4185C10.1427 11.0225 10.1317 10.6485 10.1317 10.2965C10.1317 9.65848 10.3847 9.16348 10.8907 8.81148C11.4187 8.45948 12.0017 8.28348 12.6397 8.28348C13.9597 8.28348 14.7187 8.91048 14.9167 10.1645C14.9607 10.3845 14.9937 10.6815 15.0157 11.0555C15.0377 11.4075 15.0487 11.8145 15.0487 12.2765C15.0487 13.0245 14.9717 13.9045 14.8177 14.9165C14.6857 15.9065 14.4217 16.9735 14.0257 18.1175C13.6517 19.2395 13.0797 20.3945 12.3097 21.5825C11.6277 22.6385 11.0117 23.4415 10.4617 23.9915C9.93366 24.5415 9.42766 24.9155 8.94366 25.1135C8.45966 25.3115 7.97566 25.4105 7.49166 25.4105Z" fill="#FD853A"/>
    <path d="M20.3348 32.7365C17.2768 32.7365 15.7478 31.8565 15.7478 30.0965C15.7478 29.4585 15.9238 29.0295 16.2758 28.8095C16.6278 28.6115 17.1008 28.5125 17.6948 28.5125C18.3108 28.5125 18.8498 28.5565 19.3118 28.6445C19.7738 28.7545 20.2908 28.8095 20.8628 28.8095C21.5008 28.8095 21.9518 28.7325 22.2158 28.5785C22.4798 28.4245 22.6118 28.1385 22.6118 27.7205C22.6118 27.4565 22.5568 27.1155 22.4468 26.6975C22.3368 26.2795 22.1168 25.6635 21.7868 24.8495C21.4788 24.0355 21.0278 22.9135 20.4338 21.4835L16.3088 11.4845C16.1768 11.1545 16.1108 10.8025 16.1108 10.4285C16.1108 9.68048 16.3858 9.14148 16.9358 8.81148C17.4858 8.45948 18.0578 8.28348 18.6518 8.28348C19.2018 8.28348 19.6418 8.42648 19.9718 8.71248C20.3238 8.97648 20.5768 9.32848 20.7308 9.76848L24.8558 20.4605C25.6918 18.7665 26.2418 17.3145 26.5058 16.1045C26.7918 14.8945 26.9128 13.7835 26.8688 12.7715C26.8468 12.1335 26.8028 11.6165 26.7368 11.2205C26.6928 10.8025 26.6598 10.5385 26.6378 10.4285C26.5498 9.72448 26.7588 9.19648 27.2648 8.84448C27.7928 8.47048 28.4088 8.28348 29.1128 8.28348C29.7508 8.28348 30.2348 8.42648 30.5648 8.71248C30.9168 8.97648 31.1698 9.35048 31.3238 9.83448C31.4338 10.1865 31.4998 10.5935 31.5218 11.0555C31.5658 11.4955 31.5878 11.8585 31.5878 12.1445C31.5878 13.2885 31.4778 14.4545 31.2578 15.6425C31.0598 16.8305 30.7628 17.9525 30.3668 19.0085C29.9928 20.0425 29.5198 20.9445 28.9478 21.7145C28.8598 21.8245 28.6948 22.0445 28.4528 22.3745C28.2328 22.7045 27.9578 23.0345 27.6278 23.3645C27.2978 23.6725 26.9568 23.8925 26.6048 24.0245C26.9788 24.4205 27.2428 24.9375 27.3968 25.5755C27.5508 26.2355 27.6278 26.9175 27.6278 27.6215C27.6278 29.1175 27.0448 30.3385 25.8788 31.2845C24.7348 32.2525 22.8868 32.7365 20.3348 32.7365ZM40.015 25.4105C37.815 25.4105 36.099 24.9045 34.867 23.8925C33.635 22.8585 33.019 21.5275 33.019 19.8995C33.019 17.9855 33.822 16.5995 35.428 15.7415C37.056 14.8835 39.432 14.5865 42.556 14.8505C42.402 13.8385 42.083 13.1565 41.599 12.8045C41.115 12.4305 40.532 12.2435 39.85 12.2435C39.3 12.2435 38.838 12.2765 38.464 12.3425C38.112 12.3865 37.782 12.4415 37.474 12.5075C37.166 12.5735 36.792 12.6065 36.352 12.6065C35.758 12.6065 35.285 12.5075 34.933 12.3095C34.581 12.0895 34.405 11.6605 34.405 11.0225C34.405 10.1205 34.79 9.46048 35.56 9.04248C36.352 8.60248 37.595 8.38248 39.289 8.38248C41.973 8.38248 43.964 9.15248 45.262 10.6925C46.56 12.2105 47.209 14.2455 47.209 16.7975C47.209 19.7455 46.67 21.9235 45.592 23.3315C44.536 24.7175 42.677 25.4105 40.015 25.4105ZM37.771 19.8995C37.771 21.1535 38.618 21.7805 40.312 21.7805C40.862 21.7805 41.291 21.6815 41.599 21.4835C41.907 21.2855 42.127 20.8895 42.259 20.2955C42.413 19.7015 42.523 18.8105 42.589 17.6225C42.479 17.7325 42.336 17.8095 42.16 17.8535C41.984 17.8975 41.808 17.9195 41.632 17.9195C40.18 17.9195 39.168 18.0625 38.596 18.3485C38.046 18.6125 37.771 19.1295 37.771 19.8995ZM55.4291 25.4105C51.2931 25.4105 49.2251 24.4975 49.2251 22.6715C49.2251 22.0995 49.3791 21.6485 49.6871 21.3185C49.9951 20.9885 50.4021 20.8235 50.9081 20.8235C51.1281 20.8235 51.3371 20.8565 51.5351 20.9225C51.7551 20.9665 52.1731 21.0875 52.7891 21.2855C53.0531 21.3735 53.4051 21.4615 53.8451 21.5495C54.2851 21.6375 54.7141 21.6815 55.1321 21.6815C55.9241 21.6815 56.4851 21.5825 56.8151 21.3845C57.1451 21.1865 57.3101 20.8565 57.3101 20.3945C57.3101 20.0205 57.2221 19.7345 57.0461 19.5365C56.8701 19.3165 56.4961 19.1075 55.9241 18.9095C55.3521 18.7115 54.4611 18.4365 53.2511 18.0845C52.1511 17.7765 51.2601 17.2265 50.5781 16.4345C49.9181 15.6205 49.5881 14.6195 49.5881 13.4315C49.5881 11.7595 50.1931 10.4835 51.4031 9.60348C52.6131 8.72348 54.2741 8.28348 56.3861 8.28348C57.9701 8.28348 59.2131 8.50348 60.1151 8.94348C61.0171 9.38348 61.4681 10.0215 61.4681 10.8575C61.4681 11.3855 61.3141 11.8255 61.0061 12.1775C60.6981 12.5295 60.2801 12.7055 59.7521 12.7055C59.5321 12.7055 59.2681 12.6725 58.9601 12.6065C58.6741 12.5405 58.3221 12.4525 57.9041 12.3425C57.5961 12.2325 57.2661 12.1445 56.9141 12.0785C56.5841 12.0125 56.2321 11.9795 55.8581 11.9795C54.8021 11.9795 54.2741 12.3535 54.2741 13.1015C54.2741 13.5415 54.4831 13.9155 54.9011 14.2235C55.3191 14.5095 56.1221 14.8285 57.3101 15.1805C58.9381 15.6645 60.1371 16.3135 60.9071 17.1275C61.6771 17.9195 62.0621 18.9755 62.0621 20.2955C62.0621 21.8355 61.4681 23.0785 60.2801 24.0245C59.1141 24.9485 57.4971 25.4105 55.4291 25.4105ZM70.8004 25.4105C68.6004 25.4105 66.8844 24.9045 65.6524 23.8925C64.4204 22.8585 63.8044 21.5275 63.8044 19.8995C63.8044 17.9855 64.6074 16.5995 66.2134 15.7415C67.8414 14.8835 70.2174 14.5865 73.3414 14.8505C73.1874 13.8385 72.8684 13.1565 72.3844 12.8045C71.9004 12.4305 71.3174 12.2435 70.6354 12.2435C70.0854 12.2435 69.6234 12.2765 69.2494 12.3425C68.8974 12.3865 68.5674 12.4415 68.2594 12.5075C67.9514 12.5735 67.5774 12.6065 67.1374 12.6065C66.5434 12.6065 66.0704 12.5075 65.7184 12.3095C65.3664 12.0895 65.1904 11.6605 65.1904 11.0225C65.1904 10.1205 65.5754 9.46048 66.3454 9.04248C67.1374 8.60248 68.3804 8.38248 70.0744 8.38248C72.7584 8.38248 74.7494 9.15248 76.0474 10.6925C77.3454 12.2105 77.9944 14.2455 77.9944 16.7975C77.9944 19.7455 77.4554 21.9235 76.3774 23.3315C75.3214 24.7175 73.4624 25.4105 70.8004 25.4105ZM68.5564 19.8995C68.5564 21.1535 69.4034 21.7805 71.0974 21.7805C71.6474 21.7805 72.0764 21.6815 72.3844 21.4835C72.6924 21.2855 72.9124 20.8895 73.0444 20.2955C73.1984 19.7015 73.3084 18.8105 73.3744 17.6225C73.2644 17.7325 73.1214 17.8095 72.9454 17.8535C72.7694 17.8975 72.5934 17.9195 72.4174 17.9195C70.9654 17.9195 69.9534 18.0625 69.3814 18.3485C68.8314 18.6125 68.5564 19.1295 68.5564 19.8995ZM83.0488 25.4105C81.4648 25.4105 80.6728 24.6625 80.6728 23.1665V15.2465C80.6728 13.1345 81.3438 11.4625 82.6858 10.2305C84.0498 8.99848 85.8428 8.38248 88.0648 8.38248C90.2868 8.38248 92.0688 8.99848 93.4108 10.2305C94.7748 11.4625 95.4568 13.1345 95.4568 15.2465V23.1665C95.4568 24.6625 94.6648 25.4105 93.0808 25.4105C91.4968 25.4105 90.7048 24.6625 90.7048 23.1665V15.5105C90.7048 14.4765 90.4738 13.6955 90.0118 13.1675C89.5498 12.6175 88.9008 12.3425 88.0648 12.3425C87.2288 12.3425 86.5798 12.6175 86.1178 13.1675C85.6558 13.6955 85.4248 14.4765 85.4248 15.5105V23.1665C85.4248 24.6625 84.6328 25.4105 83.0488 25.4105ZM99.7352 25.4105C98.9432 25.4105 98.3052 25.1685 97.8212 24.6845C97.3592 24.2005 97.1282 23.5845 97.1282 22.8365C97.1282 22.0665 97.3592 21.4395 97.8212 20.9555C98.3052 20.4715 98.9432 20.2295 99.7352 20.2295C100.505 20.2295 101.132 20.4715 101.616 20.9555C102.1 21.4395 102.342 22.0665 102.342 22.8365C102.342 23.5845 102.1 24.2005 101.616 24.6845C101.132 25.1685 100.505 25.4105 99.7352 25.4105ZM110.429 25.4105C108.009 25.4105 106.095 24.6405 104.687 23.1005C103.301 21.5605 102.608 19.3055 102.608 16.3355C102.608 14.3555 102.894 12.7825 103.466 11.6165C104.038 10.4505 104.83 9.62548 105.842 9.14148C106.876 8.63548 108.042 8.38248 109.34 8.38248C110.506 8.38248 111.452 8.52548 112.178 8.81148C112.904 9.09748 113.476 9.58148 113.894 10.2635C113.74 9.80148 113.619 9.37248 113.531 8.97648C113.465 8.55848 113.41 8.07448 113.366 7.52448C113.344 6.97448 113.333 6.27048 113.333 5.41248V2.57448C113.333 0.858484 114.07 0.000483572 115.544 0.000483572C117.15 0.000483572 117.953 0.858484 117.953 2.57448V16.5335C117.953 19.5035 117.293 21.7255 115.973 23.1995C114.653 24.6735 112.805 25.4105 110.429 25.4105ZM110.198 21.4505C111.122 21.4505 111.837 21.1205 112.343 20.4605C112.871 19.8005 113.135 18.5685 113.135 16.7645C113.135 15.5545 113.014 14.6415 112.772 14.0255C112.552 13.3875 112.222 12.9475 111.782 12.7055C111.342 12.4635 110.814 12.3425 110.198 12.3425C109.582 12.3425 109.054 12.4635 108.614 12.7055C108.174 12.9475 107.833 13.3875 107.591 14.0255C107.371 14.6415 107.261 15.5545 107.261 16.7645C107.261 18.5685 107.514 19.8005 108.02 20.4605C108.548 21.1205 109.274 21.4505 110.198 21.4505ZM129.159 25.4105C126.959 25.4105 125.232 25.0475 123.978 24.3215C122.746 23.5955 121.866 22.5945 121.338 21.3185C120.832 20.0425 120.579 18.5795 120.579 16.9295C120.579 13.8935 121.25 11.7155 122.592 10.3955C123.934 9.05348 125.738 8.38248 128.004 8.38248C129.368 8.38248 130.578 8.61348 131.634 9.07548C132.69 9.53748 133.515 10.1975 134.109 11.0555C134.703 11.8915 135 12.9145 135 14.1245C135 17.6445 132.492 19.4045 127.476 19.4045H125.562C125.738 20.0865 126.024 20.6255 126.42 21.0215C126.838 21.3955 127.564 21.5825 128.598 21.5825C129.17 21.5825 129.632 21.5495 129.984 21.4835C130.336 21.4175 130.666 21.3515 130.974 21.2855C131.304 21.2195 131.678 21.1865 132.096 21.1865C132.69 21.1865 133.163 21.2965 133.515 21.5165C133.867 21.7145 134.043 22.1325 134.043 22.7705C134.043 23.6725 133.647 24.3435 132.855 24.7835C132.085 25.2015 130.853 25.4105 129.159 25.4105ZM125.331 16.9625C125.507 16.7205 125.705 16.5665 125.925 16.5005C126.145 16.4125 126.486 16.3685 126.948 16.3685C128.246 16.3685 129.137 16.2475 129.621 16.0055C130.127 15.7415 130.38 15.2795 130.38 14.6195C130.38 13.7835 130.149 13.1455 129.687 12.7055C129.225 12.2435 128.642 12.0125 127.938 12.0125C127.124 12.0125 126.486 12.3535 126.024 13.0355C125.562 13.7175 125.331 15.0265 125.331 16.9625ZM143.112 25.4105C138.976 25.4105 136.908 24.4975 136.908 22.6715C136.908 22.0995 137.062 21.6485 137.37 21.3185C137.678 20.9885 138.085 20.8235 138.591 20.8235C138.811 20.8235 139.02 20.8565 139.218 20.9225C139.438 20.9665 139.856 21.0875 140.472 21.2855C140.736 21.3735 141.088 21.4615 141.528 21.5495C141.968 21.6375 142.397 21.6815 142.815 21.6815C143.607 21.6815 144.168 21.5825 144.498 21.3845C144.828 21.1865 144.993 20.8565 144.993 20.3945C144.993 20.0205 144.905 19.7345 144.729 19.5365C144.553 19.3165 144.179 19.1075 143.607 18.9095C143.035 18.7115 142.144 18.4365 140.934 18.0845C139.834 17.7765 138.943 17.2265 138.261 16.4345C137.601 15.6205 137.271 14.6195 137.271 13.4315C137.271 11.7595 137.876 10.4835 139.086 9.60348C140.296 8.72348 141.957 8.28348 144.069 8.28348C145.653 8.28348 146.896 8.50348 147.798 8.94348C148.7 9.38348 149.151 10.0215 149.151 10.8575C149.151 11.3855 148.997 11.8255 148.689 12.1775C148.381 12.5295 147.963 12.7055 147.435 12.7055C147.215 12.7055 146.951 12.6725 146.643 12.6065C146.357 12.5405 146.005 12.4525 145.587 12.3425C145.279 12.2325 144.949 12.1445 144.597 12.0785C144.267 12.0125 143.915 11.9795 143.541 11.9795C142.485 11.9795 141.957 12.3535 141.957 13.1015C141.957 13.5415 142.166 13.9155 142.584 14.2235C143.002 14.5095 143.805 14.8285 144.993 15.1805C146.621 15.6645 147.82 16.3135 148.59 17.1275C149.36 17.9195 149.745 18.9755 149.745 20.2955C149.745 21.8355 149.151 23.0785 147.963 24.0245C146.797 24.9485 145.18 25.4105 143.112 25.4105ZM154.729 5.54448C153.915 5.54448 153.233 5.28048 152.683 4.75248C152.133 4.22448 151.858 3.57548 151.858 2.80548C151.858 1.99148 152.133 1.32048 152.683 0.792483C153.233 0.264483 153.915 0.000483572 154.729 0.000483572C155.565 0.000483572 156.247 0.264483 156.775 0.792483C157.325 1.32048 157.6 1.99148 157.6 2.80548C157.6 3.57548 157.325 4.22448 156.775 4.75248C156.247 5.28048 155.565 5.54448 154.729 5.54448ZM157.105 23.1995C157.105 24.6735 156.335 25.4105 154.795 25.4105C154.047 25.4105 153.453 25.2345 153.013 24.8825C152.573 24.5085 152.353 23.9475 152.353 23.1995V10.6265C152.353 9.92248 152.529 9.37248 152.881 8.97648C153.255 8.58048 153.871 8.38248 154.729 8.38248C155.587 8.38248 156.192 8.58048 156.544 8.97648C156.918 9.37248 157.105 9.92248 157.105 10.6265V23.1995ZM174.975 27.1595C174.975 29.0295 174.095 30.4265 172.335 31.3505C170.575 32.2745 168.056 32.7365 164.778 32.7365C163.084 32.7365 161.841 32.5165 161.049 32.0765C160.279 31.6585 159.894 30.9985 159.894 30.0965C159.894 29.4585 160.07 29.0295 160.422 28.8095C160.774 28.6115 161.247 28.5125 161.841 28.5125C162.281 28.5125 162.655 28.5345 162.963 28.5785C163.271 28.6445 163.601 28.6995 163.953 28.7435C164.327 28.8095 164.789 28.8425 165.339 28.8425C167.077 28.8425 168.32 28.7105 169.068 28.4465C169.838 28.1825 170.223 27.6435 170.223 26.8295C170.223 26.1475 169.948 25.5975 169.398 25.1795C168.848 24.7615 168.155 24.5525 167.319 24.5525C162.259 24.5525 159.729 21.8575 159.729 16.4675C159.729 13.7175 160.367 11.6825 161.643 10.3625C162.919 9.04248 164.822 8.38248 167.352 8.38248C169.024 8.38248 170.41 8.66848 171.51 9.24048C172.038 7.26048 173.16 6.27048 174.876 6.27048C175.712 6.27048 176.35 6.49048 176.79 6.93048C177.252 7.34848 177.483 7.96448 177.483 8.77848C177.483 9.52648 177.263 10.0655 176.823 10.3955C176.383 10.7255 175.679 10.8905 174.711 10.8905C174.293 10.8905 173.908 10.9235 173.556 10.9895C174.502 12.3095 174.975 14.1465 174.975 16.5005C174.975 17.9745 174.755 19.1955 174.315 20.1635C173.897 21.1315 173.116 21.9345 171.972 22.5725C173.072 22.9685 173.842 23.5845 174.282 24.4205C174.744 25.2345 174.975 26.1475 174.975 27.1595ZM164.481 16.4675C164.481 19.2175 165.438 20.5925 167.352 20.5925C169.266 20.5925 170.223 19.2175 170.223 16.4675C170.223 15.0375 169.981 13.9925 169.497 13.3325C169.035 12.6725 168.32 12.3425 167.352 12.3425C166.406 12.3425 165.691 12.6725 165.207 13.3325C164.723 13.9925 164.481 15.0375 164.481 16.4675ZM180.453 25.4105C178.869 25.4105 178.077 24.6625 178.077 23.1665V15.2465C178.077 13.1345 178.748 11.4625 180.09 10.2305C181.454 8.99848 183.247 8.38248 185.469 8.38248C187.691 8.38248 189.473 8.99848 190.815 10.2305C192.179 11.4625 192.861 13.1345 192.861 15.2465V23.1665C192.861 24.6625 192.069 25.4105 190.485 25.4105C188.901 25.4105 188.109 24.6625 188.109 23.1665V15.5105C188.109 14.4765 187.878 13.6955 187.416 13.1675C186.954 12.6175 186.305 12.3425 185.469 12.3425C184.633 12.3425 183.984 12.6175 183.522 13.1675C183.06 13.6955 182.829 14.4765 182.829 15.5105V23.1665C182.829 24.6625 182.037 25.4105 180.453 25.4105Z" fill="#344054"/>
    </svg>
    