<svg width="193" height="33" viewBox="0 0 193 33" fill="none" xmlns="http://www.w3.org/2000/svg">
    <path d="M7.49092 25.41C7.05092 25.41 6.58892 25.322 6.10492 25.146C5.64292 24.948 5.20292 24.607 4.78492 24.123C4.36692 23.617 4.00392 22.891 3.69592 21.945L0.230924 11.088C0.0769239 10.582 0.0989238 10.12 0.296924 9.702C0.494924 9.262 0.813924 8.921 1.25392 8.679C1.69392 8.415 2.17792 8.28299 2.70592 8.28299C3.18992 8.28299 3.62992 8.404 4.02592 8.646C4.44392 8.888 4.72992 9.262 4.88392 9.768L8.11792 20.691C8.95392 19.305 9.50392 17.93 9.76792 16.566C10.0539 15.18 10.1969 13.849 10.1969 12.573C10.1969 12.177 10.1859 11.792 10.1639 11.418C10.1419 11.022 10.1309 10.648 10.1309 10.296C10.1309 9.658 10.3839 9.163 10.8899 8.81099C11.4179 8.45899 12.0009 8.28299 12.6389 8.28299C13.9589 8.28299 14.7179 8.90999 14.9159 10.164C14.9599 10.384 14.9929 10.681 15.0149 11.055C15.0369 11.407 15.0479 11.814 15.0479 12.276C15.0479 13.024 14.9709 13.904 14.8169 14.916C14.6849 15.906 14.4209 16.973 14.0249 18.117C13.6509 19.239 13.0789 20.394 12.3089 21.582C11.6269 22.638 11.0109 23.441 10.4609 23.991C9.93292 24.541 9.42692 24.915 8.94292 25.113C8.45892 25.311 7.97492 25.41 7.49092 25.41ZM20.3341 32.736C17.2761 32.736 15.7471 31.856 15.7471 30.096C15.7471 29.458 15.9231 29.029 16.2751 28.809C16.6271 28.611 17.1001 28.512 17.6941 28.512C18.3101 28.512 18.8491 28.556 19.3111 28.644C19.7731 28.754 20.2901 28.809 20.8621 28.809C21.5001 28.809 21.9511 28.732 22.2151 28.578C22.4791 28.424 22.6111 28.138 22.6111 27.72C22.6111 27.456 22.5561 27.115 22.4461 26.697C22.3361 26.279 22.1161 25.663 21.7861 24.849C21.4781 24.035 21.0271 22.913 20.4331 21.483L16.3081 11.484C16.1761 11.154 16.1101 10.802 16.1101 10.428C16.1101 9.68 16.3851 9.141 16.9351 8.81099C17.4851 8.45899 18.0571 8.28299 18.6511 8.28299C19.2011 8.28299 19.6411 8.42599 19.9711 8.712C20.3231 8.976 20.5761 9.328 20.7301 9.768L24.8551 20.46C25.6911 18.766 26.2411 17.314 26.5051 16.104C26.7911 14.894 26.9121 13.783 26.8681 12.771C26.8461 12.133 26.8021 11.616 26.7361 11.22C26.6921 10.802 26.6591 10.538 26.6371 10.428C26.5491 9.724 26.7581 9.196 27.2641 8.844C27.7921 8.47 28.4081 8.28299 29.1121 8.28299C29.7501 8.28299 30.2341 8.42599 30.5641 8.712C30.9161 8.976 31.1691 9.35 31.3231 9.834C31.4331 10.186 31.4991 10.593 31.5211 11.055C31.5651 11.495 31.5871 11.858 31.5871 12.144C31.5871 13.288 31.4771 14.454 31.2571 15.642C31.0591 16.83 30.7621 17.952 30.3661 19.008C29.9921 20.042 29.5191 20.944 28.9471 21.714C28.8591 21.824 28.6941 22.044 28.4521 22.374C28.2321 22.704 27.9571 23.034 27.6271 23.364C27.2971 23.672 26.9561 23.892 26.6041 24.024C26.9781 24.42 27.2421 24.937 27.3961 25.575C27.5501 26.235 27.6271 26.917 27.6271 27.621C27.6271 29.117 27.0441 30.338 25.8781 31.284C24.7341 32.252 22.8861 32.736 20.3341 32.736ZM40.0142 25.41C37.8142 25.41 36.0982 24.904 34.8662 23.892C33.6342 22.858 33.0182 21.527 33.0182 19.899C33.0182 17.985 33.8212 16.599 35.4272 15.741C37.0552 14.883 39.4312 14.586 42.5552 14.85C42.4012 13.838 42.0822 13.156 41.5982 12.804C41.1142 12.43 40.5312 12.243 39.8492 12.243C39.2992 12.243 38.8372 12.276 38.4632 12.342C38.1112 12.386 37.7812 12.441 37.4732 12.507C37.1652 12.573 36.7912 12.606 36.3512 12.606C35.7572 12.606 35.2842 12.507 34.9322 12.309C34.5802 12.089 34.4042 11.66 34.4042 11.022C34.4042 10.12 34.7892 9.46 35.5592 9.04199C36.3512 8.602 37.5942 8.382 39.2882 8.382C41.9722 8.382 43.9632 9.152 45.2612 10.692C46.5592 12.21 47.2082 14.245 47.2082 16.797C47.2082 19.745 46.6692 21.923 45.5912 23.331C44.5352 24.717 42.6762 25.41 40.0142 25.41ZM37.7702 19.899C37.7702 21.153 38.6172 21.78 40.3112 21.78C40.8612 21.78 41.2902 21.681 41.5982 21.483C41.9062 21.285 42.1262 20.889 42.2582 20.295C42.4122 19.701 42.5222 18.81 42.5882 17.622C42.4782 17.732 42.3352 17.809 42.1592 17.853C41.9832 17.897 41.8072 17.919 41.6312 17.919C40.1792 17.919 39.1672 18.062 38.5952 18.348C38.0452 18.612 37.7702 19.129 37.7702 19.899ZM55.4283 25.41C51.2923 25.41 49.2243 24.497 49.2243 22.671C49.2243 22.099 49.3783 21.648 49.6863 21.318C49.9943 20.988 50.4013 20.823 50.9073 20.823C51.1273 20.823 51.3363 20.856 51.5343 20.922C51.7543 20.966 52.1723 21.087 52.7883 21.285C53.0523 21.373 53.4043 21.461 53.8443 21.549C54.2843 21.637 54.7133 21.681 55.1313 21.681C55.9233 21.681 56.4843 21.582 56.8143 21.384C57.1443 21.186 57.3093 20.856 57.3093 20.394C57.3093 20.02 57.2213 19.734 57.0453 19.536C56.8693 19.316 56.4953 19.107 55.9233 18.909C55.3513 18.711 54.4603 18.436 53.2503 18.084C52.1503 17.776 51.2593 17.226 50.5773 16.434C49.9173 15.62 49.5873 14.619 49.5873 13.431C49.5873 11.759 50.1923 10.483 51.4023 9.603C52.6123 8.723 54.2733 8.28299 56.3853 8.28299C57.9693 8.28299 59.2123 8.50299 60.1143 8.943C61.0163 9.383 61.4673 10.021 61.4673 10.857C61.4673 11.385 61.3133 11.825 61.0053 12.177C60.6973 12.529 60.2793 12.705 59.7513 12.705C59.5313 12.705 59.2673 12.672 58.9593 12.606C58.6733 12.54 58.3213 12.452 57.9033 12.342C57.5953 12.232 57.2653 12.144 56.9133 12.078C56.5833 12.012 56.2313 11.979 55.8573 11.979C54.8013 11.979 54.2733 12.353 54.2733 13.101C54.2733 13.541 54.4823 13.915 54.9003 14.223C55.3183 14.509 56.1213 14.828 57.3093 15.18C58.9373 15.664 60.1363 16.313 60.9063 17.127C61.6763 17.919 62.0613 18.975 62.0613 20.295C62.0613 21.835 61.4673 23.078 60.2793 24.024C59.1133 24.948 57.4963 25.41 55.4283 25.41ZM70.7996 25.41C68.5996 25.41 66.8836 24.904 65.6516 23.892C64.4196 22.858 63.8036 21.527 63.8036 19.899C63.8036 17.985 64.6066 16.599 66.2126 15.741C67.8406 14.883 70.2166 14.586 73.3406 14.85C73.1866 13.838 72.8676 13.156 72.3836 12.804C71.8996 12.43 71.3166 12.243 70.6346 12.243C70.0846 12.243 69.6226 12.276 69.2486 12.342C68.8966 12.386 68.5666 12.441 68.2586 12.507C67.9506 12.573 67.5766 12.606 67.1366 12.606C66.5426 12.606 66.0696 12.507 65.7176 12.309C65.3656 12.089 65.1896 11.66 65.1896 11.022C65.1896 10.12 65.5746 9.46 66.3446 9.04199C67.1366 8.602 68.3796 8.382 70.0736 8.382C72.7576 8.382 74.7486 9.152 76.0466 10.692C77.3446 12.21 77.9936 14.245 77.9936 16.797C77.9936 19.745 77.4546 21.923 76.3766 23.331C75.3206 24.717 73.4616 25.41 70.7996 25.41ZM68.5556 19.899C68.5556 21.153 69.4026 21.78 71.0966 21.78C71.6466 21.78 72.0756 21.681 72.3836 21.483C72.6916 21.285 72.9116 20.889 73.0436 20.295C73.1976 19.701 73.3076 18.81 73.3736 17.622C73.2636 17.732 73.1206 17.809 72.9446 17.853C72.7686 17.897 72.5926 17.919 72.4166 17.919C70.9646 17.919 69.9526 18.062 69.3806 18.348C68.8306 18.612 68.5556 19.129 68.5556 19.899ZM83.048 25.41C81.464 25.41 80.672 24.662 80.672 23.166V15.246C80.672 13.134 81.343 11.462 82.685 10.23C84.049 8.998 85.842 8.382 88.064 8.382C90.286 8.382 92.068 8.998 93.41 10.23C94.774 11.462 95.456 13.134 95.456 15.246V23.166C95.456 24.662 94.664 25.41 93.08 25.41C91.496 25.41 90.704 24.662 90.704 23.166V15.51C90.704 14.476 90.473 13.695 90.011 13.167C89.549 12.617 88.9 12.342 88.064 12.342C87.228 12.342 86.579 12.617 86.117 13.167C85.655 13.695 85.424 14.476 85.424 15.51V23.166C85.424 24.662 84.632 25.41 83.048 25.41ZM99.7344 25.41C98.9424 25.41 98.3044 25.168 97.8204 24.684C97.3584 24.2 97.1274 23.584 97.1274 22.836C97.1274 22.066 97.3584 21.439 97.8204 20.955C98.3044 20.471 98.9424 20.229 99.7344 20.229C100.504 20.229 101.131 20.471 101.615 20.955C102.099 21.439 102.341 22.066 102.341 22.836C102.341 23.584 102.099 24.2 101.615 24.684C101.131 25.168 100.504 25.41 99.7344 25.41ZM110.428 25.41C108.008 25.41 106.094 24.64 104.686 23.1C103.3 21.56 102.607 19.305 102.607 16.335C102.607 14.355 102.893 12.782 103.465 11.616C104.037 10.45 104.829 9.625 105.841 9.141C106.875 8.635 108.041 8.382 109.339 8.382C110.505 8.382 111.451 8.525 112.177 8.81099C112.903 9.097 113.475 9.581 113.893 10.263C113.739 9.80099 113.618 9.372 113.53 8.976C113.464 8.558 113.409 8.074 113.365 7.52399C113.343 6.974 113.332 6.27 113.332 5.41199V2.574C113.332 0.857995 114.069 -4.70877e-06 115.543 -4.70877e-06C117.149 -4.70877e-06 117.952 0.857995 117.952 2.574V16.533C117.952 19.503 117.292 21.725 115.972 23.199C114.652 24.673 112.804 25.41 110.428 25.41ZM110.197 21.45C111.121 21.45 111.836 21.12 112.342 20.46C112.87 19.8 113.134 18.568 113.134 16.764C113.134 15.554 113.013 14.641 112.771 14.025C112.551 13.387 112.221 12.947 111.781 12.705C111.341 12.463 110.813 12.342 110.197 12.342C109.581 12.342 109.053 12.463 108.613 12.705C108.173 12.947 107.832 13.387 107.59 14.025C107.37 14.641 107.26 15.554 107.26 16.764C107.26 18.568 107.513 19.8 108.019 20.46C108.547 21.12 109.273 21.45 110.197 21.45ZM129.158 25.41C126.958 25.41 125.231 25.047 123.977 24.321C122.745 23.595 121.865 22.594 121.337 21.318C120.831 20.042 120.578 18.579 120.578 16.929C120.578 13.893 121.249 11.715 122.591 10.395C123.933 9.053 125.737 8.382 128.003 8.382C129.367 8.382 130.577 8.613 131.633 9.075C132.689 9.537 133.514 10.197 134.108 11.055C134.702 11.891 134.999 12.914 134.999 14.124C134.999 17.644 132.491 19.404 127.475 19.404H125.561C125.737 20.086 126.023 20.625 126.419 21.021C126.837 21.395 127.563 21.582 128.597 21.582C129.169 21.582 129.631 21.549 129.983 21.483C130.335 21.417 130.665 21.351 130.973 21.285C131.303 21.219 131.677 21.186 132.095 21.186C132.689 21.186 133.162 21.296 133.514 21.516C133.866 21.714 134.042 22.132 134.042 22.77C134.042 23.672 133.646 24.343 132.854 24.783C132.084 25.201 130.852 25.41 129.158 25.41ZM125.33 16.962C125.506 16.72 125.704 16.566 125.924 16.5C126.144 16.412 126.485 16.368 126.947 16.368C128.245 16.368 129.136 16.247 129.62 16.005C130.126 15.741 130.379 15.279 130.379 14.619C130.379 13.783 130.148 13.145 129.686 12.705C129.224 12.243 128.641 12.012 127.937 12.012C127.123 12.012 126.485 12.353 126.023 13.035C125.561 13.717 125.33 15.026 125.33 16.962ZM143.112 25.41C138.976 25.41 136.908 24.497 136.908 22.671C136.908 22.099 137.062 21.648 137.37 21.318C137.678 20.988 138.085 20.823 138.591 20.823C138.811 20.823 139.02 20.856 139.218 20.922C139.438 20.966 139.856 21.087 140.472 21.285C140.736 21.373 141.088 21.461 141.528 21.549C141.968 21.637 142.397 21.681 142.815 21.681C143.607 21.681 144.168 21.582 144.498 21.384C144.828 21.186 144.993 20.856 144.993 20.394C144.993 20.02 144.905 19.734 144.729 19.536C144.553 19.316 144.179 19.107 143.607 18.909C143.035 18.711 142.144 18.436 140.934 18.084C139.834 17.776 138.943 17.226 138.261 16.434C137.601 15.62 137.271 14.619 137.271 13.431C137.271 11.759 137.876 10.483 139.086 9.603C140.296 8.723 141.957 8.28299 144.069 8.28299C145.653 8.28299 146.896 8.50299 147.798 8.943C148.7 9.383 149.151 10.021 149.151 10.857C149.151 11.385 148.997 11.825 148.689 12.177C148.381 12.529 147.963 12.705 147.435 12.705C147.215 12.705 146.951 12.672 146.643 12.606C146.357 12.54 146.005 12.452 145.587 12.342C145.279 12.232 144.949 12.144 144.597 12.078C144.267 12.012 143.915 11.979 143.541 11.979C142.485 11.979 141.957 12.353 141.957 13.101C141.957 13.541 142.166 13.915 142.584 14.223C143.002 14.509 143.805 14.828 144.993 15.18C146.621 15.664 147.82 16.313 148.59 17.127C149.36 17.919 149.745 18.975 149.745 20.295C149.745 21.835 149.151 23.078 147.963 24.024C146.797 24.948 145.18 25.41 143.112 25.41ZM154.728 5.54399C153.914 5.54399 153.232 5.27999 152.682 4.752C152.132 4.224 151.857 3.575 151.857 2.80499C151.857 1.99099 152.132 1.31999 152.682 0.791995C153.232 0.263995 153.914 -4.70877e-06 154.728 -4.70877e-06C155.564 -4.70877e-06 156.246 0.263995 156.774 0.791995C157.324 1.31999 157.599 1.99099 157.599 2.80499C157.599 3.575 157.324 4.224 156.774 4.752C156.246 5.27999 155.564 5.54399 154.728 5.54399ZM157.104 23.199C157.104 24.673 156.334 25.41 154.794 25.41C154.046 25.41 153.452 25.234 153.012 24.882C152.572 24.508 152.352 23.947 152.352 23.199V10.626C152.352 9.922 152.528 9.372 152.88 8.976C153.254 8.58 153.87 8.382 154.728 8.382C155.586 8.382 156.191 8.58 156.543 8.976C156.917 9.372 157.104 9.922 157.104 10.626V23.199ZM174.974 27.159C174.974 29.029 174.094 30.426 172.334 31.35C170.574 32.274 168.055 32.736 164.777 32.736C163.083 32.736 161.84 32.516 161.048 32.076C160.278 31.658 159.893 30.998 159.893 30.096C159.893 29.458 160.069 29.029 160.421 28.809C160.773 28.611 161.246 28.512 161.84 28.512C162.28 28.512 162.654 28.534 162.962 28.578C163.27 28.644 163.6 28.699 163.952 28.743C164.326 28.809 164.788 28.842 165.338 28.842C167.076 28.842 168.319 28.71 169.067 28.446C169.837 28.182 170.222 27.643 170.222 26.829C170.222 26.147 169.947 25.597 169.397 25.179C168.847 24.761 168.154 24.552 167.318 24.552C162.258 24.552 159.728 21.857 159.728 16.467C159.728 13.717 160.366 11.682 161.642 10.362C162.918 9.042 164.821 8.382 167.351 8.382C169.023 8.382 170.409 8.668 171.509 9.24C172.037 7.26 173.159 6.27 174.875 6.27C175.711 6.27 176.349 6.49 176.789 6.92999C177.251 7.34799 177.482 7.96399 177.482 8.778C177.482 9.526 177.262 10.065 176.822 10.395C176.382 10.725 175.678 10.89 174.71 10.89C174.292 10.89 173.907 10.923 173.555 10.989C174.501 12.309 174.974 14.146 174.974 16.5C174.974 17.974 174.754 19.195 174.314 20.163C173.896 21.131 173.115 21.934 171.971 22.572C173.071 22.968 173.841 23.584 174.281 24.42C174.743 25.234 174.974 26.147 174.974 27.159ZM164.48 16.467C164.48 19.217 165.437 20.592 167.351 20.592C169.265 20.592 170.222 19.217 170.222 16.467C170.222 15.037 169.98 13.992 169.496 13.332C169.034 12.672 168.319 12.342 167.351 12.342C166.405 12.342 165.69 12.672 165.206 13.332C164.722 13.992 164.48 15.037 164.48 16.467ZM180.452 25.41C178.868 25.41 178.076 24.662 178.076 23.166V15.246C178.076 13.134 178.747 11.462 180.089 10.23C181.453 8.998 183.246 8.382 185.468 8.382C187.69 8.382 189.472 8.998 190.814 10.23C192.178 11.462 192.86 13.134 192.86 15.246V23.166C192.86 24.662 192.068 25.41 190.484 25.41C188.9 25.41 188.108 24.662 188.108 23.166V15.51C188.108 14.476 187.877 13.695 187.415 13.167C186.953 12.617 186.304 12.342 185.468 12.342C184.632 12.342 183.983 12.617 183.521 13.167C183.059 13.695 182.828 14.476 182.828 15.51V23.166C182.828 24.662 182.036 25.41 180.452 25.41Z" fill="#344054"/>
    </svg>
    