<svg width="705" height="214" viewBox="0 0 705 214" fill="none" xmlns="http://www.w3.org/2000/svg">
    <g filter="url(#filter0_n_8_218)">
    <path d="M-4.99785e-05 74.0005V30.3642H17.4715C20.6818 30.3642 23.3593 30.84 25.5042 31.7917C27.6491 32.7434 29.2613 34.0645 30.3409 35.7548C31.4204 37.4309 31.9602 39.3628 31.9602 41.5503C31.9602 43.2548 31.6193 44.7534 30.9375 46.046C30.2556 47.3244 29.3181 48.3755 28.125 49.1994C26.946 50.0091 25.5965 50.5844 24.0767 50.9253V51.3514C25.7386 51.4224 27.294 51.8912 28.7429 52.7577C30.2059 53.6241 31.392 54.8386 32.3011 56.4011C33.2102 57.9494 33.6647 59.796 33.6647 61.9409C33.6647 64.2562 33.0894 66.323 31.9389 68.1412C30.8025 69.9452 29.1193 71.3727 26.8892 72.4238C24.659 73.475 21.9105 74.0005 18.6434 74.0005H-4.99785e-05ZM9.2258 66.4579H16.7471C19.3181 66.4579 21.1931 65.9679 22.3721 64.9878C23.5511 63.9934 24.1406 62.6724 24.1406 61.0247C24.1406 59.8173 23.8494 58.752 23.267 57.8287C22.6846 56.9054 21.8536 56.1809 20.7741 55.6554C19.7088 55.1298 18.4375 54.867 16.9602 54.867H9.2258V66.4579ZM9.2258 48.6241H16.0653C17.3295 48.6241 18.4517 48.404 19.4318 47.9636C20.4261 47.5091 21.2073 46.8699 21.7755 46.046C22.3579 45.2221 22.6491 44.2349 22.6491 43.0844C22.6491 41.5077 22.088 40.2363 20.9659 39.2704C19.8579 38.3045 18.2812 37.8216 16.2357 37.8216H9.2258V48.6241ZM47.9742 30.3642V74.0005H38.8975V30.3642H47.9742ZM69.5599 74.6398C66.1934 74.6398 63.2957 73.9579 60.8667 72.5943C58.4519 71.2165 56.5911 69.2704 55.2843 66.7562C53.9775 64.2278 53.3241 61.2378 53.3241 57.7861C53.3241 54.4196 53.9775 51.465 55.2843 48.9224C56.5911 46.3798 58.4306 44.3983 60.8028 42.9778C63.1892 41.5574 65.9874 40.8471 69.1977 40.8471C71.3568 40.8471 73.3667 41.1952 75.2275 41.8912C77.1025 42.573 78.736 43.6028 80.1281 44.9807C81.5343 46.3585 82.6281 48.0915 83.4093 50.1795C84.1906 52.2534 84.5812 54.6824 84.5812 57.4665V59.9594H56.9463V54.3344H76.0372C76.0372 53.0275 75.7531 51.8699 75.1849 50.8613C74.6167 49.8528 73.8284 49.0645 72.8198 48.4963C71.8255 47.9139 70.6678 47.6227 69.3468 47.6227C67.969 47.6227 66.7474 47.9423 65.6821 48.5815C64.6309 49.2065 63.8071 50.0517 63.2105 51.117C62.6139 52.1682 62.3085 53.34 62.2943 54.6327V59.9807C62.2943 61.6 62.5926 62.9991 63.1892 64.1781C63.7999 65.3571 64.6593 66.2662 65.7673 66.9054C66.8752 67.5446 68.1892 67.8642 69.709 67.8642C70.7176 67.8642 71.6409 67.7221 72.4789 67.438C73.317 67.154 74.0343 66.7278 74.6309 66.1596C75.2275 65.5915 75.6821 64.8954 75.9946 64.0716L84.3894 64.6255C83.9633 66.6426 83.0897 68.404 81.7687 69.9096C80.4619 71.4011 78.7715 72.5659 76.6977 73.404C74.638 74.2278 72.2588 74.6398 69.5599 74.6398ZM98.9812 55.0801V74.0005H89.9045V41.2733H98.5551V47.0474H98.9386C99.663 45.144 100.878 43.6383 102.582 42.5304C104.287 41.4082 106.353 40.8471 108.782 40.8471C111.055 40.8471 113.037 41.3443 114.727 42.3386C116.417 43.3329 117.731 44.7534 118.669 46.6C119.606 48.4324 120.075 50.6199 120.075 53.1625V74.0005H110.998V54.7818C111.012 52.779 110.501 51.2165 109.464 50.0943C108.427 48.9579 107 48.3898 105.181 48.3898C103.96 48.3898 102.88 48.6525 101.943 49.1781C101.02 49.7037 100.295 50.4707 99.7695 51.4792C99.2582 52.4736 98.9954 53.6738 98.9812 55.0801ZM138.688 74.5332C136.203 74.5332 133.951 73.894 131.934 72.6156C129.931 71.323 128.34 69.4267 127.161 66.9267C125.997 64.4125 125.414 61.3301 125.414 57.6795C125.414 53.9295 126.018 50.8116 127.225 48.3258C128.433 45.8258 130.038 43.9579 132.041 42.7221C134.058 41.4721 136.267 40.8471 138.667 40.8471C140.499 40.8471 142.026 41.1596 143.248 41.7846C144.484 42.3954 145.478 43.1625 146.231 44.0858C146.998 44.9949 147.58 45.8898 147.978 46.7704H148.255V30.3642H157.311V74.0005H148.362V68.7591H147.978C147.552 69.6682 146.948 70.5702 146.167 71.465C145.4 72.3457 144.399 73.0773 143.163 73.6596C141.941 74.242 140.45 74.5332 138.688 74.5332ZM141.565 67.3102C143.028 67.3102 144.264 66.9125 145.272 66.117C146.295 65.3074 147.076 64.1781 147.616 62.7292C148.17 61.2804 148.447 59.5829 148.447 57.6369C148.447 55.6909 148.177 54.0005 147.637 52.5659C147.097 51.1312 146.316 50.0233 145.293 49.242C144.271 48.4608 143.028 48.0702 141.565 48.0702C140.073 48.0702 138.816 48.475 137.793 49.2846C136.771 50.0943 135.997 51.2165 135.471 52.6511C134.945 54.0858 134.683 55.7477 134.683 57.6369C134.683 59.5403 134.945 61.2236 135.471 62.6866C136.011 64.1355 136.785 65.2719 137.793 66.0957C138.816 66.9054 140.073 67.3102 141.565 67.3102ZM164.173 74.0005V41.2733H173.25V74.0005H164.173ZM168.733 37.0545C167.383 37.0545 166.226 36.6071 165.26 35.7122C164.308 34.8031 163.832 33.7165 163.832 32.4523C163.832 31.2023 164.308 30.1298 165.26 29.2349C166.226 28.3258 167.383 27.8713 168.733 27.8713C170.082 27.8713 171.233 28.3258 172.185 29.2349C173.151 30.1298 173.633 31.2023 173.633 32.4523C173.633 33.7165 173.151 34.8031 172.185 35.7122C171.233 36.6071 170.082 37.0545 168.733 37.0545ZM188.998 55.0801V74.0005H179.921V41.2733H188.571V47.0474H188.955C189.679 45.144 190.894 43.6383 192.598 42.5304C194.303 41.4082 196.37 40.8471 198.799 40.8471C201.071 40.8471 203.053 41.3443 204.743 42.3386C206.434 43.3329 207.748 44.7534 208.685 46.6C209.623 48.4324 210.091 50.6199 210.091 53.1625V74.0005H201.015V54.7818C201.029 52.779 200.517 51.2165 199.481 50.0943C198.444 48.9579 197.016 48.3898 195.198 48.3898C193.976 48.3898 192.897 48.6525 191.959 49.1781C191.036 49.7037 190.312 50.4707 189.786 51.4792C189.275 52.4736 189.012 53.6738 188.998 55.0801ZM231.389 86.9551C228.449 86.9551 225.928 86.5503 223.826 85.7406C221.737 84.9452 220.076 83.8585 218.84 82.4807C217.604 81.1028 216.801 79.5545 216.432 77.8358L224.827 76.7065C225.083 77.3599 225.487 77.9707 226.041 78.5389C226.595 79.1071 227.327 79.5616 228.236 79.9025C229.159 80.2577 230.281 80.4352 231.603 80.4352C233.577 80.4352 235.203 79.9523 236.482 78.9863C237.774 78.0346 238.421 76.4366 238.421 74.1923V68.2051H238.037C237.639 69.1142 237.043 69.9736 236.247 70.7832C235.452 71.5929 234.429 72.2534 233.179 72.7648C231.929 73.2761 230.438 73.5318 228.705 73.5318C226.247 73.5318 224.01 72.9636 221.993 71.8273C219.99 70.6767 218.392 68.9224 217.199 66.5645C216.02 64.1923 215.431 61.1952 215.431 57.573C215.431 53.8656 216.034 50.769 217.242 48.2832C218.449 45.7974 220.054 43.9366 222.057 42.7008C224.074 41.465 226.283 40.8471 228.683 40.8471C230.516 40.8471 232.05 41.1596 233.286 41.7846C234.522 42.3954 235.516 43.1625 236.269 44.0858C237.036 44.9949 237.625 45.8898 238.037 46.7704H238.378V41.2733H247.391V74.3202C247.391 77.1042 246.709 79.4338 245.345 81.3088C243.982 83.1838 242.093 84.59 239.678 85.5275C237.277 86.4792 234.514 86.9551 231.389 86.9551ZM231.581 66.7136C233.044 66.7136 234.28 66.3514 235.289 65.627C236.311 64.8883 237.093 63.8372 237.632 62.4736C238.186 61.0957 238.463 59.448 238.463 57.5304C238.463 55.6128 238.193 53.9508 237.654 52.5446C237.114 51.1241 236.333 50.0233 235.31 49.242C234.287 48.4608 233.044 48.0702 231.581 48.0702C230.09 48.0702 228.833 48.475 227.81 49.2846C226.787 50.0801 226.013 51.188 225.487 52.6085C224.962 54.029 224.699 55.6696 224.699 57.5304C224.699 59.4196 224.962 61.0531 225.487 62.4309C226.027 63.7946 226.801 64.8528 227.81 65.6057C228.833 66.3443 230.09 66.7136 231.581 66.7136ZM267.301 74.0005V41.2733H276.377V74.0005H267.301ZM271.86 37.0545C270.511 37.0545 269.353 36.6071 268.387 35.7122C267.436 34.8031 266.96 33.7165 266.96 32.4523C266.96 31.2023 267.436 30.1298 268.387 29.2349C269.353 28.3258 270.511 27.8713 271.86 27.8713C273.21 27.8713 274.36 28.3258 275.312 29.2349C276.278 30.1298 276.761 31.2023 276.761 32.4523C276.761 33.7165 276.278 34.8031 275.312 35.7122C274.36 36.6071 273.21 37.0545 271.86 37.0545ZM292.125 55.0801V74.0005H283.048V41.2733H291.699V47.0474H292.082C292.807 45.144 294.021 43.6383 295.726 42.5304C297.43 41.4082 299.497 40.8471 301.926 40.8471C304.199 40.8471 306.18 41.3443 307.871 42.3386C309.561 43.3329 310.875 44.7534 311.812 46.6C312.75 48.4324 313.219 50.6199 313.219 53.1625V74.0005H304.142V54.7818C304.156 52.779 303.645 51.2165 302.608 50.0943C301.571 48.9579 300.143 48.3898 298.325 48.3898C297.104 48.3898 296.024 48.6525 295.087 49.1781C294.163 49.7037 293.439 50.4707 292.913 51.4792C292.402 52.4736 292.139 53.6738 292.125 55.0801ZM328.849 55.0801V74.0005H319.772V41.2733H328.423V47.0474H328.807C329.531 45.144 330.745 43.6383 332.45 42.5304C334.155 41.4082 336.221 40.8471 338.65 40.8471C340.923 40.8471 342.905 41.3443 344.595 42.3386C346.285 43.3329 347.599 44.7534 348.537 46.6C349.474 48.4324 349.943 50.6199 349.943 53.1625V74.0005H340.866V54.7818C340.88 52.779 340.369 51.2165 339.332 50.0943C338.295 48.9579 336.868 48.3898 335.049 48.3898C333.828 48.3898 332.748 48.6525 331.811 49.1781C330.888 49.7037 330.163 50.4707 329.638 51.4792C329.126 52.4736 328.863 53.6738 328.849 55.0801ZM371.284 74.6398C367.974 74.6398 365.112 73.9366 362.697 72.5304C360.296 71.1099 358.443 69.1355 357.136 66.6071C355.829 64.0645 355.176 61.117 355.176 57.7648C355.176 54.3841 355.829 51.4295 357.136 48.9011C358.443 46.3585 360.296 44.3841 362.697 42.9778C365.112 41.5574 367.974 40.8471 371.284 40.8471C374.593 40.8471 377.448 41.5574 379.849 42.9778C382.264 44.3841 384.125 46.3585 385.431 48.9011C386.738 51.4295 387.392 54.3841 387.392 57.7648C387.392 61.117 386.738 64.0645 385.431 66.6071C384.125 69.1355 382.264 71.1099 379.849 72.5304C377.448 73.9366 374.593 74.6398 371.284 74.6398ZM371.326 67.6085C372.832 67.6085 374.089 67.1824 375.098 66.3301C376.106 65.4636 376.866 64.2846 377.377 62.7932C377.903 61.3017 378.166 59.6042 378.166 57.7008C378.166 55.7974 377.903 54.1 377.377 52.6085C376.866 51.117 376.106 49.938 375.098 49.0716C374.089 48.2051 372.832 47.7719 371.326 47.7719C369.806 47.7719 368.528 48.2051 367.491 49.0716C366.468 49.938 365.694 51.117 365.169 52.6085C364.657 54.1 364.402 55.7974 364.402 57.7008C364.402 59.6042 364.657 61.3017 365.169 62.7932C365.694 64.2846 366.468 65.4636 367.491 66.3301C368.528 67.1824 369.806 67.6085 371.326 67.6085ZM422.15 41.2733L410.708 74.0005H400.481L389.039 41.2733H398.628L405.424 64.6895H405.765L412.541 41.2733H422.15ZM434.649 74.6184C432.561 74.6184 430.7 74.2562 429.066 73.5318C427.433 72.7932 426.14 71.7065 425.188 70.2719C424.251 68.823 423.782 67.019 423.782 64.8599C423.782 63.0417 424.116 61.5148 424.784 60.279C425.451 59.0432 426.36 58.0488 427.511 57.296C428.661 56.5432 429.968 55.975 431.431 55.5915C432.909 55.2079 434.457 54.938 436.076 54.7818C437.98 54.5829 439.514 54.3983 440.678 54.2278C441.843 54.0432 442.688 53.7733 443.214 53.4182C443.74 53.063 444.002 52.5375 444.002 51.8415V51.7136C444.002 50.3642 443.576 49.3202 442.724 48.5815C441.886 47.8429 440.693 47.4736 439.144 47.4736C437.511 47.4736 436.211 47.8358 435.245 48.5602C434.279 49.2704 433.64 50.1653 433.328 51.2449L424.933 50.563C425.359 48.5744 426.197 46.8557 427.447 45.4068C428.697 43.9437 430.309 42.8216 432.284 42.0403C434.272 41.2449 436.573 40.8471 439.187 40.8471C441.005 40.8471 442.745 41.0602 444.407 41.4863C446.083 41.9125 447.568 42.573 448.86 43.4679C450.167 44.3628 451.197 45.5133 451.95 46.9196C452.703 48.3116 453.079 49.9807 453.079 51.9267V74.0005H444.471V69.4622H444.215C443.69 70.4849 442.987 71.3869 442.106 72.1682C441.225 72.9352 440.167 73.5389 438.931 73.9792C437.695 74.4054 436.268 74.6184 434.649 74.6184ZM437.248 68.3542C438.583 68.3542 439.762 68.0915 440.785 67.5659C441.808 67.0261 442.61 66.3017 443.193 65.3926C443.775 64.4835 444.066 63.4537 444.066 62.3031V58.8301C443.782 59.0148 443.392 59.1852 442.894 59.3415C442.411 59.4835 441.865 59.6184 441.254 59.7463C440.643 59.8599 440.032 59.9665 439.421 60.0659C438.811 60.1511 438.257 60.2292 437.759 60.3003C436.694 60.4565 435.764 60.7051 434.968 61.046C434.173 61.3869 433.555 61.8486 433.115 62.4309C432.674 62.9991 432.454 63.7094 432.454 64.5616C432.454 65.7974 432.901 66.742 433.796 67.3954C434.705 68.0346 435.856 68.3542 437.248 68.3542ZM476.929 41.2733V48.0915H457.22V41.2733H476.929ZM461.694 33.4324H470.771V63.9437C470.771 64.7818 470.899 65.4352 471.154 65.904C471.41 66.3585 471.765 66.6781 472.22 66.8628C472.689 67.0474 473.228 67.1398 473.839 67.1398C474.265 67.1398 474.691 67.1042 475.117 67.0332C475.544 66.948 475.87 66.8841 476.098 66.8415L477.525 73.5957C477.071 73.7378 476.431 73.9011 475.608 74.0858C474.784 74.2846 473.782 74.4054 472.603 74.448C470.416 74.5332 468.498 74.242 466.85 73.5744C465.217 72.9068 463.946 71.8699 463.037 70.4636C462.127 69.0574 461.68 67.2818 461.694 65.1369V33.4324ZM482.241 74.0005V41.2733H491.318V74.0005H482.241ZM486.801 37.0545C485.451 37.0545 484.294 36.6071 483.328 35.7122C482.376 34.8031 481.9 33.7165 481.9 32.4523C481.9 31.2023 482.376 30.1298 483.328 29.2349C484.294 28.3258 485.451 27.8713 486.801 27.8713C488.15 27.8713 489.301 28.3258 490.253 29.2349C491.218 30.1298 491.701 31.2023 491.701 32.4523C491.701 33.7165 491.218 34.8031 490.253 35.7122C489.301 36.6071 488.15 37.0545 486.801 37.0545ZM512.776 74.6398C509.466 74.6398 506.604 73.9366 504.189 72.5304C501.789 71.1099 499.935 69.1355 498.628 66.6071C497.321 64.0645 496.668 61.117 496.668 57.7648C496.668 54.3841 497.321 51.4295 498.628 48.9011C499.935 46.3585 501.789 44.3841 504.189 42.9778C506.604 41.5574 509.466 40.8471 512.776 40.8471C516.085 40.8471 518.941 41.5574 521.341 42.9778C523.756 44.3841 525.617 46.3585 526.924 48.9011C528.23 51.4295 528.884 54.3841 528.884 57.7648C528.884 61.117 528.23 64.0645 526.924 66.6071C525.617 69.1355 523.756 71.1099 521.341 72.5304C518.941 73.9366 516.085 74.6398 512.776 74.6398ZM512.818 67.6085C514.324 67.6085 515.581 67.1824 516.59 66.3301C517.598 65.4636 518.358 64.2846 518.87 62.7932C519.395 61.3017 519.658 59.6042 519.658 57.7008C519.658 55.7974 519.395 54.1 518.87 52.6085C518.358 51.117 517.598 49.938 516.59 49.0716C515.581 48.2051 514.324 47.7719 512.818 47.7719C511.299 47.7719 510.02 48.2051 508.983 49.0716C507.96 49.938 507.186 51.117 506.661 52.6085C506.149 54.1 505.894 55.7974 505.894 57.7008C505.894 59.6042 506.149 61.3017 506.661 62.7932C507.186 64.2846 507.96 65.4636 508.983 66.3301C510.02 67.1824 511.299 67.6085 512.818 67.6085ZM543.262 55.0801V74.0005H534.186V41.2733H542.836V47.0474H543.22C543.944 45.144 545.159 43.6383 546.863 42.5304C548.568 41.4082 550.635 40.8471 553.064 40.8471C555.336 40.8471 557.318 41.3443 559.008 42.3386C560.699 43.3329 562.012 44.7534 562.95 46.6C563.887 48.4324 564.356 50.6199 564.356 53.1625V74.0005H555.28V54.7818C555.294 52.779 554.782 51.2165 553.745 50.0943C552.708 48.9579 551.281 48.3898 549.463 48.3898C548.241 48.3898 547.162 48.6525 546.224 49.1781C545.301 49.7037 544.576 50.4707 544.051 51.4792C543.539 52.4736 543.277 53.6738 543.262 55.0801ZM590.653 74.0005L581.746 41.2733H590.93L596.001 63.2619H596.299L601.583 41.2733H610.596L615.965 63.1341H616.242L621.228 41.2733H630.39L621.505 74.0005H611.896L606.271 53.4182H605.866L600.241 74.0005H590.653ZM634.632 74.0005V41.2733H643.709V74.0005H634.632ZM639.192 37.0545C637.842 37.0545 636.684 36.6071 635.719 35.7122C634.767 34.8031 634.291 33.7165 634.291 32.4523C634.291 31.2023 634.767 30.1298 635.719 29.2349C636.684 28.3258 637.842 27.8713 639.192 27.8713C640.541 27.8713 641.692 28.3258 642.643 29.2349C643.609 30.1298 644.092 31.2023 644.092 32.4523C644.092 33.7165 643.609 34.8031 642.643 35.7122C641.692 36.6071 640.541 37.0545 639.192 37.0545ZM667.787 41.2733V48.0915H648.078V41.2733H667.787ZM652.553 33.4324H661.629V63.9437C661.629 64.7818 661.757 65.4352 662.013 65.904C662.269 66.3585 662.624 66.6781 663.078 66.8628C663.547 67.0474 664.087 67.1398 664.698 67.1398C665.124 67.1398 665.55 67.1042 665.976 67.0332C666.402 66.948 666.729 66.8841 666.956 66.8415L668.384 73.5957C667.929 73.7378 667.29 73.9011 666.466 74.0858C665.642 74.2846 664.641 74.4054 663.462 74.448C661.274 74.5332 659.357 74.242 657.709 73.5744C656.076 72.9068 654.804 71.8699 653.895 70.4636C652.986 69.0574 652.539 67.2818 652.553 65.1369V33.4324ZM682.88 55.0801V74.0005H673.803V30.3642H682.624V47.0474H683.007C683.746 45.1156 684.939 43.6028 686.587 42.5091C688.235 41.4011 690.302 40.8471 692.787 40.8471C695.06 40.8471 697.042 41.3443 698.732 42.3386C700.436 43.3187 701.757 44.7321 702.695 46.5787C703.647 48.4111 704.115 50.6057 704.101 53.1625V74.0005H695.025V54.7818C695.039 52.7648 694.527 51.1952 693.49 50.073C692.468 48.9508 691.033 48.3898 689.186 48.3898C687.951 48.3898 686.857 48.6525 685.905 49.1781C684.968 49.7037 684.229 50.4707 683.689 51.4792C683.164 52.4736 682.894 53.6738 682.88 55.0801ZM112.409 146.533C109.923 146.533 107.672 145.894 105.655 144.616C103.652 143.323 102.061 141.427 100.882 138.927C99.7173 136.412 99.1349 133.33 99.1349 129.68C99.1349 125.93 99.7386 122.812 100.946 120.326C102.153 117.826 103.758 115.958 105.761 114.722C107.778 113.472 109.987 112.847 112.388 112.847C114.22 112.847 115.747 113.16 116.969 113.785C118.205 114.395 119.199 115.162 119.952 116.086C120.719 116.995 121.301 117.89 121.699 118.77H121.976V102.364H131.031V146.001H122.082V140.759H121.699C121.273 141.668 120.669 142.57 119.888 143.465C119.121 144.346 118.119 145.077 116.883 145.66C115.662 146.242 114.17 146.533 112.409 146.533ZM115.285 139.31C116.749 139.31 117.984 138.912 118.993 138.117C120.016 137.307 120.797 136.178 121.337 134.729C121.891 133.28 122.168 131.583 122.168 129.637C122.168 127.691 121.898 126.001 121.358 124.566C120.818 123.131 120.037 122.023 119.014 121.242C117.991 120.461 116.749 120.07 115.285 120.07C113.794 120.07 112.537 120.475 111.514 121.285C110.491 122.094 109.717 123.216 109.192 124.651C108.666 126.086 108.403 127.748 108.403 129.637C108.403 131.54 108.666 133.224 109.192 134.687C109.732 136.135 110.506 137.272 111.514 138.096C112.537 138.905 113.794 139.31 115.285 139.31ZM152.809 146.64C149.442 146.64 146.545 145.958 144.116 144.594C141.701 143.216 139.84 141.27 138.533 138.756C137.226 136.228 136.573 133.238 136.573 129.786C136.573 126.42 137.226 123.465 138.533 120.922C139.84 118.38 141.679 116.398 144.052 114.978C146.438 113.557 149.236 112.847 152.447 112.847C154.606 112.847 156.616 113.195 158.476 113.891C160.351 114.573 161.985 115.603 163.377 116.981C164.783 118.359 165.877 120.091 166.658 122.18C167.439 124.253 167.83 126.682 167.83 129.466V131.959H140.195V126.334H159.286C159.286 125.028 159.002 123.87 158.434 122.861C157.866 121.853 157.077 121.064 156.069 120.496C155.074 119.914 153.917 119.623 152.596 119.623C151.218 119.623 149.996 119.942 148.931 120.582C147.88 121.207 147.056 122.052 146.459 123.117C145.863 124.168 145.557 125.34 145.543 126.633V131.981C145.543 133.6 145.841 134.999 146.438 136.178C147.049 137.357 147.908 138.266 149.016 138.905C150.124 139.545 151.438 139.864 152.958 139.864C153.966 139.864 154.89 139.722 155.728 139.438C156.566 139.154 157.283 138.728 157.88 138.16C158.476 137.591 158.931 136.895 159.243 136.072L167.638 136.626C167.212 138.643 166.339 140.404 165.018 141.91C163.711 143.401 162.02 144.566 159.947 145.404C157.887 146.228 155.508 146.64 152.809 146.64ZM200.383 122.606L192.074 123.117C191.932 122.407 191.626 121.768 191.158 121.199C190.689 120.617 190.071 120.155 189.304 119.814C188.551 119.459 187.649 119.282 186.598 119.282C185.192 119.282 184.006 119.58 183.04 120.177C182.074 120.759 181.591 121.54 181.591 122.52C181.591 123.302 181.903 123.962 182.528 124.502C183.153 125.042 184.226 125.475 185.746 125.802L191.669 126.995C194.851 127.648 197.223 128.699 198.785 130.148C200.348 131.597 201.129 133.501 201.129 135.859C201.129 138.003 200.497 139.885 199.233 141.505C197.983 143.124 196.264 144.388 194.077 145.297C191.903 146.192 189.396 146.64 186.555 146.64C182.223 146.64 178.771 145.738 176.2 143.934C173.643 142.116 172.145 139.644 171.704 136.519L180.632 136.05C180.902 137.371 181.555 138.38 182.592 139.076C183.629 139.758 184.957 140.099 186.577 140.099C188.168 140.099 189.446 139.793 190.412 139.182C191.392 138.557 191.889 137.755 191.903 136.775C191.889 135.951 191.541 135.276 190.859 134.751C190.177 134.211 189.126 133.799 187.706 133.515L182.038 132.385C178.842 131.746 176.463 130.638 174.9 129.062C173.352 127.485 172.578 125.475 172.578 123.032C172.578 120.93 173.146 119.118 174.283 117.599C175.433 116.079 177.045 114.907 179.119 114.083C181.207 113.259 183.65 112.847 186.449 112.847C190.582 112.847 193.835 113.721 196.207 115.468C198.594 117.215 199.986 119.594 200.383 122.606ZM206.245 146.001V113.273H215.321V146.001H206.245ZM210.804 109.055C209.455 109.055 208.297 108.607 207.331 107.712C206.38 106.803 205.904 105.716 205.904 104.452C205.904 103.202 206.38 102.13 207.331 101.235C208.297 100.326 209.455 99.8713 210.804 99.8713C212.154 99.8713 213.304 100.326 214.256 101.235C215.222 102.13 215.705 103.202 215.705 104.452C215.705 105.716 215.222 106.803 214.256 107.712C213.304 108.607 212.154 109.055 210.804 109.055ZM236.737 158.955C233.796 158.955 231.275 158.55 229.173 157.741C227.085 156.945 225.423 155.859 224.187 154.481C222.951 153.103 222.149 151.555 221.779 149.836L230.174 148.707C230.43 149.36 230.835 149.971 231.389 150.539C231.943 151.107 232.674 151.562 233.583 151.903C234.507 152.258 235.629 152.435 236.95 152.435C238.924 152.435 240.551 151.952 241.829 150.986C243.122 150.035 243.768 148.437 243.768 146.192V140.205H243.384C242.987 141.114 242.39 141.974 241.595 142.783C240.799 143.593 239.776 144.253 238.526 144.765C237.276 145.276 235.785 145.532 234.052 145.532C231.595 145.532 229.357 144.964 227.34 143.827C225.338 142.677 223.74 140.922 222.546 138.564C221.367 136.192 220.778 133.195 220.778 129.573C220.778 125.866 221.382 122.769 222.589 120.283C223.796 117.797 225.401 115.937 227.404 114.701C229.421 113.465 231.63 112.847 234.031 112.847C235.863 112.847 237.397 113.16 238.633 113.785C239.869 114.395 240.863 115.162 241.616 116.086C242.383 116.995 242.972 117.89 243.384 118.77H243.725V113.273H252.738V146.32C252.738 149.104 252.056 151.434 250.693 153.309C249.329 155.184 247.44 156.59 245.025 157.528C242.624 158.479 239.862 158.955 236.737 158.955ZM236.928 138.714C238.392 138.714 239.627 138.351 240.636 137.627C241.659 136.888 242.44 135.837 242.98 134.474C243.534 133.096 243.811 131.448 243.811 129.53C243.811 127.613 243.541 125.951 243.001 124.545C242.461 123.124 241.68 122.023 240.657 121.242C239.634 120.461 238.392 120.07 236.928 120.07C235.437 120.07 234.18 120.475 233.157 121.285C232.134 122.08 231.36 123.188 230.835 124.609C230.309 126.029 230.046 127.67 230.046 129.53C230.046 131.42 230.309 133.053 230.835 134.431C231.374 135.795 232.149 136.853 233.157 137.606C234.18 138.344 235.437 138.714 236.928 138.714ZM268.438 127.08V146.001H259.361V113.273H268.012V119.047H268.395C269.12 117.144 270.334 115.638 272.039 114.53C273.743 113.408 275.81 112.847 278.239 112.847C280.512 112.847 282.493 113.344 284.184 114.339C285.874 115.333 287.188 116.753 288.125 118.6C289.063 120.432 289.532 122.62 289.532 125.162V146.001H280.455V126.782C280.469 124.779 279.958 123.216 278.921 122.094C277.884 120.958 276.456 120.39 274.638 120.39C273.417 120.39 272.337 120.653 271.399 121.178C270.476 121.704 269.752 122.471 269.226 123.479C268.715 124.474 268.452 125.674 268.438 127.08Z" fill="#171717"/>
    <path d="M321.325 146.661C318.115 146.661 315.459 145.972 313.356 144.594C311.268 143.202 309.805 141.249 308.967 138.735C308.129 136.207 307.994 133.245 308.562 129.85C309.116 126.498 310.231 123.543 311.908 120.986C313.584 118.43 315.672 116.434 318.172 114.999C320.686 113.564 323.463 112.847 326.503 112.847C328.349 112.847 330.089 113.153 331.723 113.763C333.371 114.374 334.77 115.333 335.92 116.64C337.071 117.947 337.866 119.644 338.307 121.732C338.761 123.806 338.747 126.327 338.264 129.296L337.902 131.555H311.865L312.611 126.782H332.383C332.682 125.106 332.604 123.621 332.149 122.329C331.695 121.022 330.913 119.992 329.805 119.239C328.712 118.486 327.334 118.11 325.672 118.11C323.967 118.11 322.376 118.557 320.899 119.452C319.422 120.347 318.186 121.491 317.192 122.883C316.212 124.26 315.594 125.681 315.338 127.144L314.592 131.512C314.223 133.898 314.287 135.816 314.784 137.265C315.295 138.714 316.19 139.765 317.469 140.418C318.747 141.072 320.345 141.398 322.263 141.398C323.498 141.398 324.642 141.228 325.693 140.887C326.758 140.532 327.703 140.013 328.527 139.332C329.351 138.635 330.04 137.769 330.594 136.732L336.432 137.819C335.65 139.594 334.528 141.15 333.065 142.485C331.602 143.806 329.876 144.836 327.888 145.574C325.913 146.299 323.726 146.661 321.325 146.661ZM351.759 113.273L356.872 126.015L366.269 113.273H373.236L360.303 129.637L367.867 146.001H360.899L355.572 133.77L346.176 146.001H339.188L352.099 129.637L344.77 113.273H351.759ZM386.134 146.661C382.952 146.661 380.345 145.944 378.314 144.509C376.283 143.06 374.87 141.064 374.074 138.522C373.279 135.979 373.151 133.067 373.691 129.786C374.23 126.462 375.331 123.529 376.993 120.986C378.669 118.43 380.764 116.434 383.279 114.999C385.807 113.564 388.612 112.847 391.695 112.847C394.181 112.847 396.318 113.309 398.108 114.232C399.898 115.141 401.254 116.42 402.178 118.067C403.101 119.715 403.499 121.64 403.371 123.841H397.171C397.071 122.307 396.503 120.986 395.466 119.878C394.429 118.77 392.902 118.216 390.885 118.216C389.11 118.216 387.476 118.685 385.985 119.623C384.493 120.546 383.236 121.867 382.213 123.586C381.191 125.29 380.495 127.307 380.125 129.637C379.727 132.023 379.749 134.083 380.189 135.816C380.629 137.549 381.439 138.891 382.618 139.843C383.797 140.795 385.281 141.27 387.071 141.27C388.293 141.27 389.429 141.05 390.48 140.61C391.546 140.155 392.483 139.509 393.293 138.671C394.117 137.833 394.756 136.824 395.21 135.645H401.432C400.821 137.762 399.799 139.651 398.364 141.313C396.943 142.975 395.196 144.282 393.122 145.234C391.049 146.185 388.719 146.661 386.134 146.661ZM419.896 146.661C416.686 146.661 414.03 145.972 411.928 144.594C409.839 143.202 408.376 141.249 407.538 138.735C406.7 136.207 406.565 133.245 407.133 129.85C407.687 126.498 408.803 123.543 410.479 120.986C412.155 118.43 414.243 116.434 416.743 114.999C419.257 113.564 422.034 112.847 425.074 112.847C426.92 112.847 428.66 113.153 430.294 113.763C431.942 114.374 433.341 115.333 434.491 116.64C435.642 117.947 436.437 119.644 436.878 121.732C437.332 123.806 437.318 126.327 436.835 129.296L436.473 131.555H410.436L411.182 126.782H430.955C431.253 125.106 431.175 123.621 430.72 122.329C430.266 121.022 429.484 119.992 428.376 119.239C427.283 118.486 425.905 118.11 424.243 118.11C422.538 118.11 420.947 118.557 419.47 119.452C417.993 120.347 416.757 121.491 415.763 122.883C414.783 124.26 414.165 125.681 413.909 127.144L413.163 131.512C412.794 133.898 412.858 135.816 413.355 137.265C413.866 138.714 414.761 139.765 416.04 140.418C417.318 141.072 418.916 141.398 420.834 141.398C422.07 141.398 423.213 141.228 424.264 140.887C425.33 140.532 426.274 140.013 427.098 139.332C427.922 138.635 428.611 137.769 429.165 136.732L435.003 137.819C434.222 139.594 433.099 141.15 431.636 142.485C430.173 143.806 428.447 144.836 426.459 145.574C424.484 146.299 422.297 146.661 419.896 146.661ZM454.223 102.364L446.979 146.001H440.608L447.853 102.364H454.223ZM468.565 102.364L461.321 146.001H454.95L462.194 102.364H468.565ZM483.311 146.661C480.101 146.661 477.445 145.972 475.342 144.594C473.254 143.202 471.791 141.249 470.953 138.735C470.115 136.207 469.98 133.245 470.548 129.85C471.102 126.498 472.217 123.543 473.894 120.986C475.57 118.43 477.658 116.434 480.158 114.999C482.672 113.564 485.449 112.847 488.489 112.847C490.335 112.847 492.075 113.153 493.709 113.763C495.357 114.374 496.756 115.333 497.906 116.64C499.057 117.947 499.852 119.644 500.293 121.732C500.747 123.806 500.733 126.327 500.25 129.296L499.888 131.555H473.851L474.597 126.782H494.369C494.668 125.106 494.59 123.621 494.135 122.329C493.68 121.022 492.899 119.992 491.791 119.239C490.697 118.486 489.32 118.11 487.658 118.11C485.953 118.11 484.362 118.557 482.885 119.452C481.408 120.347 480.172 121.491 479.178 122.883C478.197 124.26 477.58 125.681 477.324 127.144L476.578 131.512C476.209 133.898 476.273 135.816 476.77 137.265C477.281 138.714 478.176 139.765 479.455 140.418C480.733 141.072 482.331 141.398 484.249 141.398C485.484 141.398 486.628 141.228 487.679 140.887C488.744 140.532 489.689 140.013 490.513 139.332C491.337 138.635 492.026 137.769 492.58 136.732L498.418 137.819C497.636 139.594 496.514 141.15 495.051 142.485C493.588 143.806 491.862 144.836 489.874 145.574C487.899 146.299 485.712 146.661 483.311 146.661ZM513.611 126.569L510.415 146.001H504.045L509.499 113.273H515.614L514.719 118.6H515.124C516.161 116.853 517.574 115.461 519.364 114.424C521.168 113.373 523.299 112.847 525.756 112.847C527.972 112.847 529.833 113.316 531.339 114.253C532.859 115.177 533.931 116.555 534.556 118.387C535.195 120.219 535.295 122.485 534.854 125.184L531.36 146.001H524.989L528.334 125.951C528.718 123.579 528.405 121.725 527.397 120.39C526.403 119.04 524.819 118.366 522.645 118.366C521.168 118.366 519.797 118.685 518.533 119.324C517.283 119.964 516.225 120.901 515.359 122.137C514.506 123.359 513.924 124.836 513.611 126.569ZM552.983 146.661C549.801 146.661 547.195 145.944 545.163 144.509C543.132 143.06 541.719 141.064 540.923 138.522C540.128 135.979 540 133.067 540.54 129.786C541.08 126.462 542.18 123.529 543.842 120.986C545.518 118.43 547.614 116.434 550.128 114.999C552.656 113.564 555.462 112.847 558.544 112.847C561.03 112.847 563.168 113.309 564.957 114.232C566.747 115.141 568.104 116.42 569.027 118.067C569.95 119.715 570.348 121.64 570.22 123.841H564.02C563.92 122.307 563.352 120.986 562.315 119.878C561.278 118.77 559.751 118.216 557.734 118.216C555.959 118.216 554.325 118.685 552.834 119.623C551.342 120.546 550.085 121.867 549.062 123.586C548.04 125.29 547.344 127.307 546.974 129.637C546.577 132.023 546.598 134.083 547.038 135.816C547.479 137.549 548.288 138.891 549.467 139.843C550.646 140.795 552.131 141.27 553.92 141.27C555.142 141.27 556.278 141.05 557.33 140.61C558.395 140.155 559.332 139.509 560.142 138.671C560.966 137.833 561.605 136.824 562.06 135.645H568.281C567.67 137.762 566.648 139.651 565.213 141.313C563.793 142.975 562.045 144.282 559.972 145.234C557.898 146.185 555.568 146.661 552.983 146.661ZM586.746 146.661C583.535 146.661 580.879 145.972 578.777 144.594C576.689 143.202 575.226 141.249 574.388 138.735C573.549 136.207 573.415 133.245 573.983 129.85C574.537 126.498 575.652 123.543 577.328 120.986C579.004 118.43 581.092 116.434 583.592 114.999C586.106 113.564 588.883 112.847 591.923 112.847C593.77 112.847 595.51 113.153 597.143 113.763C598.791 114.374 600.19 115.333 601.341 116.64C602.491 117.947 603.287 119.644 603.727 121.732C604.182 123.806 604.167 126.327 603.684 129.296L603.322 131.555H577.285L578.031 126.782H597.804C598.102 125.106 598.024 123.621 597.569 122.329C597.115 121.022 596.334 119.992 595.226 119.239C594.132 118.486 592.754 118.11 591.092 118.11C589.388 118.11 587.797 118.557 586.319 119.452C584.842 120.347 583.606 121.491 582.612 122.883C581.632 124.26 581.014 125.681 580.758 127.144L580.013 131.512C579.643 133.898 579.707 135.816 580.204 137.265C580.716 138.714 581.611 139.765 582.889 140.418C584.167 141.072 585.765 141.398 587.683 141.398C588.919 141.398 590.062 141.228 591.113 140.887C592.179 140.532 593.123 140.013 593.947 139.332C594.771 138.635 595.46 137.769 596.014 136.732L601.852 137.819C601.071 139.594 599.949 141.15 598.486 142.485C597.023 143.806 595.297 144.836 593.308 145.574C591.334 146.299 589.146 146.661 586.746 146.661Z" fill="#FD853A"/>
    </g>
    <path d="M276.115 20.0005C276.115 17.0005 279.115 11.0005 276.115 2.00055M283.615 23.5005C287.948 19.3339 296.815 9.20055 297.615 2.00055M286.615 30.5005C289.281 30.5005 296.415 29.1005 303.615 23.5005" stroke="#FEB273" stroke-width="4" stroke-linecap="round" stroke-linejoin="round"/>
    <path d="M111.428 165.233C109.746 172.893 98.7209 186.53 101.334 211.193M94.2402 152.09C80.8387 160.299 52.5157 181.2 46.4353 199.135M90.5054 132.534C83.6962 131.039 64.6966 130.613 43.1715 140.874" stroke="#FEB273" stroke-width="5" stroke-linecap="round" stroke-linejoin="round"/>
    <defs>
    <filter id="filter0_n_8_218" x="0" y="27.8713" width="704.123" height="131.084" filterUnits="userSpaceOnUse" color-interpolation-filters="sRGB">
    <feFlood flood-opacity="0" result="BackgroundImageFix"/>
    <feBlend mode="normal" in="SourceGraphic" in2="BackgroundImageFix" result="shape"/>
    <feTurbulence type="fractalNoise" baseFrequency="2 2" stitchTiles="stitch" numOctaves="3" result="noise" seed="3393" />
    <feColorMatrix in="noise" type="luminanceToAlpha" result="alphaNoise" />
    <feComponentTransfer in="alphaNoise" result="coloredNoise1">
    <feFuncA type="discrete" tableValues="1 1 1 1 1 1 1 1 1 1 1 1 1 1 1 1 1 1 1 1 1 1 1 1 1 1 1 1 1 1 1 1 1 1 1 1 1 1 1 1 1 1 1 1 1 1 1 1 1 1 1 0 0 0 0 0 0 0 0 0 0 0 0 0 0 0 0 0 0 0 0 0 0 0 0 0 0 0 0 0 0 0 0 0 0 0 0 0 0 0 0 0 0 0 0 0 0 0 0 0 "/>
    </feComponentTransfer>
    <feComposite operator="in" in2="shape" in="coloredNoise1" result="noise1Clipped" />
    <feFlood flood-color="rgba(0, 0, 0, 0.25)" result="color1Flood" />
    <feComposite operator="in" in2="noise1Clipped" in="color1Flood" result="color1" />
    <feMerge result="effect1_noise_8_218">
    <feMergeNode in="shape" />
    <feMergeNode in="color1" />
    </feMerge>
    </filter>
    </defs>
    </svg>
    