<svg width="727" height="214" viewBox="0 0 727 214" fill="none" xmlns="http://www.w3.org/2000/svg">
    <g filter="url(#filter0_n_138_75)">
    <path d="M31.6952 74.001L37.4907 30.3646H52.1924C55.0333 30.3646 57.3344 30.8618 59.0958 31.8561C60.8714 32.8504 62.1143 34.2069 62.8245 35.9257C63.5489 37.6444 63.762 39.5976 63.4637 41.7851C63.2222 43.6032 62.7108 45.1586 61.9296 46.4513C61.1483 47.7297 60.1824 48.7737 59.0319 49.5834C57.8813 50.3788 56.6384 50.9541 55.3032 51.3092L55.2606 51.6501C56.6526 51.7496 57.9523 52.2467 59.1597 53.1416C60.3671 54.0223 61.2904 55.2581 61.9296 56.849C62.5688 58.4399 62.7464 60.3433 62.4623 62.5592C62.164 64.7609 61.4111 66.7282 60.2037 68.4612C58.9964 70.18 57.3131 71.5365 55.154 72.5308C52.9949 73.5109 50.3529 74.001 47.2279 74.001H31.6952ZM36.1483 70.4214H47.6966C51.0631 70.4214 53.6483 69.6757 55.4523 68.1842C57.2705 66.6927 58.3358 64.8177 58.6483 62.5592C58.8614 60.8973 58.6554 59.3916 58.0304 58.0422C57.4054 56.6785 56.4182 55.599 55.0688 54.8035C53.7194 54.0081 52.0716 53.6104 50.1256 53.6104H38.3856L36.1483 70.4214ZM38.8756 50.0734H49.9765C51.6952 50.0734 53.2435 49.7183 54.6214 49.0081C56.0134 48.2979 57.1498 47.3177 58.0304 46.0677C58.9253 44.8177 59.4651 43.3902 59.6498 41.7851C59.9765 39.4697 59.4864 37.5876 58.1796 36.1388C56.8728 34.6757 54.7208 33.9442 51.7236 33.9442H40.985L38.8756 50.0734ZM78.7426 30.3646L72.9471 74.001H69.1332L74.9287 30.3646H78.7426ZM95.529 74.6828C92.4892 74.6828 89.9466 73.9726 87.9011 72.5521C85.8557 71.1175 84.3926 69.1359 83.5119 66.6075C82.6454 64.0649 82.4324 61.1388 82.8727 57.8291C83.313 54.5336 84.3074 51.6075 85.8557 49.0507C87.404 46.4797 89.35 44.4697 91.6937 43.0209C94.0517 41.5578 96.644 40.8263 99.4707 40.8263C101.246 40.8263 102.915 41.153 104.478 41.8064C106.04 42.4456 107.39 43.4328 108.526 44.768C109.662 46.089 110.479 47.7581 110.976 49.7751C111.474 51.778 111.537 54.1501 111.168 56.8916L110.912 58.7666H85.3443L85.7917 55.4214H107.482C107.766 53.3192 107.603 51.43 106.992 49.7538C106.381 48.0777 105.394 46.7496 104.03 45.7694C102.681 44.7751 101.026 44.278 99.0659 44.278C97.0346 44.278 95.1454 44.839 93.3983 45.9612C91.6653 47.0834 90.2165 48.5464 89.0517 50.3504C87.9011 52.1402 87.1767 54.0649 86.8784 56.1246L86.5375 58.5322C86.1824 61.2737 86.3244 63.589 86.9636 65.4782C87.6028 67.3532 88.6824 68.7808 90.2023 69.7609C91.7363 70.7268 93.6611 71.2098 95.9764 71.2098C97.5389 71.2098 98.938 70.9683 100.174 70.4854C101.424 70.0024 102.496 69.3561 103.391 68.5464C104.3 67.7226 105.032 66.8206 105.586 65.8405L109.016 67.0123C108.334 68.3902 107.354 69.6615 106.076 70.8263C104.797 71.991 103.27 72.9285 101.495 73.6388C99.7193 74.3348 97.7307 74.6828 95.529 74.6828ZM123.145 53.5464L120.439 74.001H116.625L120.993 41.2737H124.679L123.997 46.4086H124.338C125.318 44.7325 126.696 43.3902 128.471 42.3817C130.247 41.3589 132.335 40.8476 134.735 40.8476C136.923 40.8476 138.784 41.3092 140.318 42.2325C141.866 43.1416 142.988 44.4839 143.684 46.2595C144.395 48.0351 144.579 50.2155 144.238 52.8007L141.404 74.001H137.591L140.382 53.0351C140.737 50.3646 140.282 48.2481 139.018 46.6856C137.754 45.1089 135.858 44.3206 133.329 44.3206C131.61 44.3206 130.027 44.6899 128.578 45.4285C127.143 46.1672 125.943 47.2325 124.977 48.6246C124.025 50.0024 123.414 51.643 123.145 53.5464ZM162.511 74.6828C159.826 74.6828 157.568 73.9726 155.735 72.5521C153.903 71.1317 152.589 69.1501 151.793 66.6075C150.998 64.0649 150.82 61.1032 151.261 57.7226C151.715 54.3561 152.674 51.4086 154.137 48.8802C155.614 46.3376 157.461 44.3632 159.677 42.9569C161.907 41.5365 164.364 40.8263 167.049 40.8263C169.052 40.8263 170.664 41.1814 171.886 41.8916C173.107 42.5876 174.045 43.4541 174.698 44.491C175.366 45.528 175.849 46.5365 176.147 47.5166H176.488L178.789 30.3646H182.582L176.786 74.001H173.1L173.91 67.9285H173.462C172.88 68.9229 172.113 69.9456 171.161 70.9967C170.21 72.0336 169.024 72.9072 167.603 73.6175C166.197 74.3277 164.499 74.6828 162.511 74.6828ZM163.278 71.2098C165.394 71.2098 167.284 70.6345 168.945 69.4839C170.622 68.3192 171.999 66.7211 173.079 64.6899C174.159 62.6444 174.869 60.3007 175.21 57.6586C175.565 55.045 175.48 52.7368 174.954 50.7339C174.443 48.7169 173.512 47.1402 172.163 46.0038C170.813 44.8532 169.073 44.278 166.943 44.278C164.755 44.278 162.837 44.8746 161.19 46.0677C159.542 47.2467 158.2 48.8447 157.163 50.8618C156.126 52.8788 155.437 55.1444 155.096 57.6586C154.769 60.2013 154.847 62.4953 155.33 64.5407C155.813 66.5862 156.715 68.2126 158.036 69.42C159.357 70.6132 161.105 71.2098 163.278 71.2098ZM187.032 74.001L191.399 41.2737H195.192L190.845 74.001H187.032ZM194.404 35.6061C193.608 35.6061 192.933 35.3362 192.38 34.7964C191.826 34.2567 191.563 33.6032 191.591 32.8362C191.605 32.0976 191.889 31.4655 192.443 30.9399C193.012 30.4143 193.679 30.1515 194.446 30.1515C195.242 30.1515 195.916 30.4214 196.47 30.9612C197.024 31.501 197.287 32.1544 197.259 32.9214C197.245 33.6601 196.953 34.2922 196.385 34.8177C195.831 35.3433 195.171 35.6061 194.404 35.6061ZM206.774 53.5464L204.068 74.001H200.254L204.622 41.2737H208.308L207.626 46.4086H207.967C208.947 44.7325 210.325 43.3902 212.101 42.3817C213.876 41.3589 215.965 40.8476 218.365 40.8476C220.553 40.8476 222.413 41.3092 223.947 42.2325C225.496 43.1416 226.618 44.4839 227.314 46.2595C228.024 48.0351 228.209 50.2155 227.868 52.8007L225.034 74.001H221.22L224.011 53.0351C224.367 50.3646 223.912 48.2481 222.648 46.6856C221.384 45.1089 219.487 44.3206 216.959 44.3206C215.24 44.3206 213.656 44.6899 212.207 45.4285C210.773 46.1672 209.572 47.2325 208.607 48.6246C207.655 50.0024 207.044 51.643 206.774 53.5464ZM245.267 86.9555C243.037 86.9555 241.112 86.6643 239.493 86.0819C237.888 85.5138 236.574 84.7325 235.551 83.7382C234.542 82.7439 233.797 81.6288 233.314 80.393L236.68 78.3689C237.021 79.1927 237.525 80.0024 238.193 80.7979C238.875 81.5933 239.805 82.2467 240.984 82.7581C242.177 83.2836 243.711 83.5464 245.586 83.5464C248.484 83.5464 250.934 82.8149 252.937 81.3518C254.954 79.903 256.169 77.6586 256.581 74.6189L257.497 67.2467H257.156C256.602 68.241 255.849 69.2354 254.898 70.2297C253.946 71.2098 252.76 72.0265 251.339 72.68C249.933 73.3334 248.25 73.6601 246.29 73.6601C243.662 73.6601 241.417 73.0138 239.557 71.7211C237.71 70.4285 236.368 68.5819 235.53 66.1814C234.706 63.7666 234.514 60.8902 234.954 57.5521C235.395 54.2425 236.339 51.3305 237.788 48.8163C239.251 46.3021 241.091 44.3419 243.307 42.9356C245.523 41.5294 247.98 40.8263 250.679 40.8263C252.696 40.8263 254.315 41.1814 255.537 41.8916C256.773 42.5876 257.717 43.4541 258.371 44.491C259.038 45.528 259.535 46.5365 259.862 47.5166H260.246L261.077 41.2737H264.763L260.331 74.8532C259.961 77.6231 259.074 79.903 257.667 81.6927C256.261 83.4825 254.486 84.8035 252.341 85.6558C250.21 86.5223 247.852 86.9555 245.267 86.9555ZM247.057 70.1871C249.159 70.1871 251.034 69.6828 252.682 68.6743C254.329 67.6515 255.686 66.1956 256.751 64.3064C257.817 62.403 258.527 60.1302 258.882 57.4882C259.223 54.9314 259.123 52.6657 258.584 50.6913C258.058 48.7027 257.121 47.1402 255.771 46.0038C254.422 44.8532 252.682 44.278 250.551 44.278C248.363 44.278 246.446 44.8675 244.798 46.0464C243.15 47.2254 241.815 48.8163 240.792 50.8192C239.77 52.8078 239.095 55.0308 238.768 57.4882C238.442 59.9882 238.527 62.197 239.024 64.1146C239.535 66.018 240.459 67.5095 241.794 68.589C243.129 69.6544 244.883 70.1871 247.057 70.1871ZM286.174 74.001L290.542 41.2737H294.335L289.988 74.001H286.174ZM293.547 35.6061C292.751 35.6061 292.076 35.3362 291.522 34.7964C290.969 34.2567 290.706 33.6032 290.734 32.8362C290.748 32.0976 291.032 31.4655 291.586 30.9399C292.155 30.4143 292.822 30.1515 293.589 30.1515C294.385 30.1515 295.059 30.4214 295.613 30.9612C296.167 31.501 296.43 32.1544 296.402 32.9214C296.388 33.6601 296.096 34.2922 295.528 34.8177C294.974 35.3433 294.314 35.6061 293.547 35.6061ZM305.917 53.5464L303.211 74.001H299.397L303.765 41.2737H307.451L306.769 46.4086H307.11C308.09 44.7325 309.468 43.3902 311.244 42.3817C313.019 41.3589 315.108 40.8476 317.508 40.8476C319.696 40.8476 321.556 41.3092 323.09 42.2325C324.639 43.1416 325.761 44.4839 326.457 46.2595C327.167 48.0351 327.352 50.2155 327.011 52.8007L324.177 74.001H320.363L323.154 53.0351C323.509 50.3646 323.055 48.2481 321.791 46.6856C320.527 45.1089 318.63 44.3206 316.102 44.3206C314.383 44.3206 312.799 44.6899 311.35 45.4285C309.916 46.1672 308.715 47.2325 307.75 48.6246C306.798 50.0024 306.187 51.643 305.917 53.5464ZM340.063 53.5464L337.357 74.001H333.543L337.911 41.2737H341.597L340.916 46.4086H341.256C342.237 44.7325 343.614 43.3902 345.39 42.3817C347.166 41.3589 349.254 40.8476 351.654 40.8476C353.842 40.8476 355.702 41.3092 357.237 42.2325C358.785 43.1416 359.907 44.4839 360.603 46.2595C361.313 48.0351 361.498 50.2155 361.157 52.8007L358.323 74.001H354.509L357.3 53.0351C357.656 50.3646 357.201 48.2481 355.937 46.6856C354.673 45.1089 352.776 44.3206 350.248 44.3206C348.529 44.3206 346.945 44.6899 345.496 45.4285C344.062 46.1672 342.862 47.2325 341.896 48.6246C340.944 50.0024 340.333 51.643 340.063 53.5464ZM380.537 74.6828C377.682 74.6828 375.253 73.9584 373.251 72.5095C371.248 71.0606 369.799 69.0507 368.904 66.4797C368.009 63.8944 367.782 60.9186 368.222 57.5521C368.648 54.2425 369.628 51.3305 371.162 48.8163C372.697 46.3021 374.621 44.3419 376.937 42.9356C379.266 41.5294 381.823 40.8263 384.607 40.8263C387.476 40.8263 389.905 41.5578 391.894 43.0209C393.897 44.4697 395.346 46.4868 396.241 49.072C397.135 51.643 397.37 54.6189 396.944 57.9996C396.503 61.295 395.516 64.1998 393.982 66.714C392.448 69.214 390.523 71.1672 388.208 72.5734C385.893 73.9797 383.336 74.6828 380.537 74.6828ZM380.58 71.2098C382.895 71.2098 384.941 70.5919 386.716 69.3561C388.492 68.1203 389.934 66.4655 391.042 64.3916C392.164 62.3177 392.888 60.0379 393.215 57.5521C393.528 55.1515 393.414 52.9498 392.874 50.947C392.334 48.93 391.376 47.3177 389.998 46.1104C388.62 44.8888 386.816 44.278 384.586 44.278C382.285 44.278 380.239 44.9101 378.449 46.1743C376.66 47.4243 375.204 49.0933 374.081 51.1814C372.974 53.2552 372.256 55.528 371.93 57.9996C371.617 60.4143 371.731 62.6231 372.27 64.626C372.81 66.6288 373.769 68.2268 375.147 69.42C376.539 70.6132 378.35 71.2098 380.58 71.2098ZM431.069 41.2737L414.748 74.001H410.721L403.114 41.2737H407.098L413.128 68.9939H413.405L426.828 41.2737H431.069ZM441.601 74.7467C439.627 74.7467 437.873 74.3632 436.339 73.5961C434.819 72.8149 433.668 71.6927 432.887 70.2297C432.106 68.7524 431.85 66.9626 432.12 64.8604C432.347 63.241 432.837 61.8774 433.59 60.7694C434.357 59.6615 435.344 58.7524 436.552 58.0422C437.773 57.3177 439.179 56.7496 440.77 56.3376C442.361 55.9257 444.094 55.6132 445.969 55.4001C447.816 55.1729 449.385 54.974 450.678 54.8035C451.985 54.6331 452.993 54.3632 453.704 53.9939C454.428 53.6246 454.847 53.028 454.961 52.2041L455.046 51.4371C455.344 49.2069 454.939 47.4527 453.831 46.1743C452.723 44.8817 450.934 44.2354 448.462 44.2354C446.104 44.2354 444.087 44.7609 442.411 45.8121C440.735 46.849 439.499 48.0635 438.704 49.4555L435.295 48.1558C436.26 46.366 437.468 44.9385 438.917 43.8731C440.38 42.7936 441.949 42.0194 443.625 41.5507C445.316 41.0677 446.999 40.8263 448.675 40.8263C449.925 40.8263 451.204 40.9896 452.51 41.3163C453.817 41.643 454.996 42.2112 456.047 43.0209C457.098 43.8163 457.894 44.9314 458.434 46.366C458.973 47.7865 459.101 49.5905 458.817 51.778L455.856 74.001H452.042L452.745 68.8234H452.532C451.949 69.7893 451.147 70.7268 450.124 71.6359C449.116 72.545 447.894 73.2907 446.459 73.8731C445.039 74.4555 443.42 74.7467 441.601 74.7467ZM442.475 71.2737C444.492 71.2737 446.303 70.8263 447.908 69.9314C449.513 69.0365 450.82 67.8504 451.829 66.3731C452.851 64.8817 453.476 63.241 453.704 61.4513L454.343 56.7211C454.03 56.991 453.526 57.2325 452.83 57.4456C452.134 57.6586 451.353 57.8504 450.486 58.0209C449.62 58.1771 448.746 58.3121 447.866 58.4257C446.999 58.5393 446.232 58.6388 445.564 58.724C443.689 58.9513 442.063 59.3064 440.685 59.7893C439.307 60.2723 438.214 60.9399 437.404 61.7922C436.594 62.6302 436.097 63.7098 435.912 65.0308C435.657 67.0194 436.147 68.5606 437.383 69.6544C438.633 70.7339 440.33 71.2737 442.475 71.2737ZM482.582 41.2737L482.155 44.5763H466.538L466.964 41.2737H482.582ZM472.866 33.4328H476.68L472.44 65.4569C472.255 66.8206 472.34 67.893 472.695 68.6743C473.065 69.4413 473.604 69.9882 474.315 70.3149C475.039 70.6274 475.834 70.7836 476.701 70.7836C477.198 70.7836 477.624 70.7552 477.979 70.6984C478.334 70.6274 478.654 70.5564 478.938 70.4854L479.322 73.9157C478.924 74.0578 478.441 74.1856 477.873 74.2993C477.305 74.4271 476.623 74.491 475.827 74.491C474.435 74.491 473.136 74.1856 471.928 73.5748C470.735 72.964 469.812 72.055 469.158 70.8476C468.505 69.6402 468.299 68.1416 468.54 66.3518L472.866 33.4328ZM486.291 74.001L490.659 41.2737H494.451L490.105 74.001H486.291ZM493.663 35.6061C492.868 35.6061 492.193 35.3362 491.639 34.7964C491.085 34.2567 490.822 33.6032 490.851 32.8362C490.865 32.0976 491.149 31.4655 491.703 30.9399C492.271 30.4143 492.939 30.1515 493.706 30.1515C494.501 30.1515 495.176 30.4214 495.73 30.9612C496.284 31.501 496.547 32.1544 496.518 32.9214C496.504 33.6601 496.213 34.2922 495.645 34.8177C495.091 35.3433 494.43 35.6061 493.663 35.6061ZM512.362 74.6828C509.507 74.6828 507.078 73.9584 505.075 72.5095C503.072 71.0606 501.623 69.0507 500.728 66.4797C499.833 63.8944 499.606 60.9186 500.046 57.5521C500.472 54.2425 501.453 51.3305 502.987 48.8163C504.521 46.3021 506.445 44.3419 508.761 42.9356C511.09 41.5294 513.647 40.8263 516.431 40.8263C519.301 40.8263 521.73 41.5578 523.718 43.0209C525.721 44.4697 527.17 46.4868 528.065 49.072C528.96 51.643 529.194 54.6189 528.768 57.9996C528.328 61.295 527.34 64.1998 525.806 66.714C524.272 69.214 522.347 71.1672 520.032 72.5734C517.717 73.9797 515.16 74.6828 512.362 74.6828ZM512.404 71.2098C514.72 71.2098 516.765 70.5919 518.541 69.3561C520.316 68.1203 521.758 66.4655 522.866 64.3916C523.988 62.3177 524.713 60.0379 525.039 57.5521C525.352 55.1515 525.238 52.9498 524.698 50.947C524.159 48.93 523.2 47.3177 521.822 46.1104C520.444 44.8888 518.64 44.278 516.41 44.278C514.109 44.278 512.063 44.9101 510.274 46.1743C508.484 47.4243 507.028 49.0933 505.906 51.1814C504.798 53.2552 504.08 55.528 503.754 57.9996C503.441 60.4143 503.555 62.6231 504.095 64.626C504.634 66.6288 505.593 68.2268 506.971 69.42C508.363 70.6132 510.174 71.2098 512.404 71.2098ZM540.883 53.5464L538.177 74.001H534.363L538.731 41.2737H542.417L541.735 46.4086H542.076C543.056 44.7325 544.434 43.3902 546.21 42.3817C547.985 41.3589 550.073 40.8476 552.474 40.8476C554.661 40.8476 556.522 41.3092 558.056 42.2325C559.604 43.1416 560.727 44.4839 561.423 46.2595C562.133 48.0351 562.317 50.2155 561.977 52.8007L559.143 74.001H555.329L558.12 53.0351C558.475 50.3646 558.021 48.2481 556.756 46.6856C555.492 45.1089 553.596 44.3206 551.067 44.3206C549.349 44.3206 547.765 44.6899 546.316 45.4285C544.881 46.1672 543.681 47.2325 542.715 48.6246C541.763 50.0024 541.153 51.643 540.883 53.5464ZM592.071 74.001L586.531 41.2737H590.516L594.692 68.2694H594.969L606.283 41.2737H610.331L614.4 68.2055H614.677L626.034 41.2737H630.061L615.807 74.001H611.886L607.689 47.197H607.284L595.991 74.001H592.071ZM632.529 74.001L636.897 41.2737H640.69L636.343 74.001H632.529ZM639.901 35.6061C639.106 35.6061 638.431 35.3362 637.877 34.7964C637.323 34.2567 637.06 33.6032 637.089 32.8362C637.103 32.0976 637.387 31.4655 637.941 30.9399C638.509 30.4143 639.177 30.1515 639.944 30.1515C640.739 30.1515 641.414 30.4214 641.968 30.9612C642.522 31.501 642.785 32.1544 642.756 32.9214C642.742 33.6601 642.451 34.2922 641.883 34.8177C641.329 35.3433 640.668 35.6061 639.901 35.6061ZM663.01 41.2737L662.584 44.5763H646.966L647.393 41.2737H663.01ZM653.295 33.4328H657.108L652.868 65.4569C652.684 66.8206 652.769 67.893 653.124 68.6743C653.493 69.4413 654.033 69.9882 654.743 70.3149C655.468 70.6274 656.263 70.7836 657.13 70.7836C657.627 70.7836 658.053 70.7552 658.408 70.6984C658.763 70.6274 659.083 70.5564 659.367 70.4854L659.751 73.9157C659.353 74.0578 658.87 74.1856 658.302 74.2993C657.733 74.4271 657.052 74.491 656.256 74.491C654.864 74.491 653.564 74.1856 652.357 73.5748C651.164 72.964 650.241 72.055 649.587 70.8476C648.934 69.6402 648.728 68.1416 648.969 66.3518L653.295 33.4328ZM673.879 53.5464L671.173 74.001H667.359L673.154 30.3646H676.968L674.859 46.4086H675.2C676.166 44.7041 677.522 43.3547 679.27 42.3604C681.031 41.3518 683.154 40.8476 685.64 40.8476C687.842 40.8476 689.717 41.3021 691.265 42.2112C692.828 43.1203 693.957 44.4626 694.653 46.2382C695.363 48.0138 695.548 50.2013 695.207 52.8007L692.373 74.001H688.559L691.35 53.0351C691.706 50.3362 691.237 48.2126 689.944 46.6643C688.666 45.1018 686.762 44.3206 684.234 44.3206C682.487 44.3206 680.875 44.6899 679.397 45.4285C677.934 46.1672 676.713 47.2325 675.733 48.6246C674.767 50.0024 674.149 51.643 673.879 53.5464ZM127.794 146.683C125.109 146.683 122.851 145.973 121.018 144.552C119.186 143.132 117.872 141.15 117.077 138.608C116.281 136.065 116.104 133.103 116.544 129.723C116.999 126.356 117.957 123.409 119.42 120.88C120.898 118.338 122.744 116.363 124.96 114.957C127.19 113.536 129.648 112.826 132.332 112.826C134.335 112.826 135.947 113.181 137.169 113.892C138.391 114.588 139.328 115.454 139.981 116.491C140.649 117.528 141.132 118.536 141.43 119.517H141.771L144.072 102.365H147.865L142.07 146.001H138.383L139.193 139.929H138.746C138.163 140.923 137.396 141.946 136.445 142.997C135.493 144.034 134.307 144.907 132.886 145.617C131.48 146.328 129.783 146.683 127.794 146.683ZM128.561 143.21C130.677 143.21 132.567 142.634 134.229 141.484C135.905 140.319 137.283 138.721 138.362 136.69C139.442 134.644 140.152 132.301 140.493 129.659C140.848 127.045 140.763 124.737 140.237 122.734C139.726 120.717 138.795 119.14 137.446 118.004C136.097 116.853 134.356 116.278 132.226 116.278C130.038 116.278 128.121 116.875 126.473 118.068C124.825 119.247 123.483 120.845 122.446 122.862C121.409 124.879 120.72 127.144 120.379 129.659C120.052 132.201 120.131 134.495 120.614 136.541C121.097 138.586 121.999 140.213 123.32 141.42C124.641 142.613 126.388 143.21 128.561 143.21ZM165.418 146.683C162.379 146.683 159.836 145.973 157.791 144.552C155.745 143.117 154.282 141.136 153.401 138.608C152.535 136.065 152.322 133.139 152.762 129.829C153.202 126.534 154.197 123.608 155.745 121.051C157.293 118.48 159.239 116.47 161.583 115.021C163.941 113.558 166.533 112.826 169.36 112.826C171.136 112.826 172.805 113.153 174.367 113.806C175.93 114.446 177.279 115.433 178.416 116.768C179.552 118.089 180.369 119.758 180.866 121.775C181.363 123.778 181.427 126.15 181.058 128.892L180.802 130.767H155.234L155.681 127.421H177.372C177.656 125.319 177.492 123.43 176.881 121.754C176.271 120.078 175.283 118.75 173.92 117.769C172.57 116.775 170.916 116.278 168.955 116.278C166.924 116.278 165.035 116.839 163.288 117.961C161.555 119.083 160.106 120.546 158.941 122.35C157.791 124.14 157.066 126.065 156.768 128.125L156.427 130.532C156.072 133.274 156.214 135.589 156.853 137.478C157.492 139.353 158.572 140.781 160.092 141.761C161.626 142.727 163.551 143.21 165.866 143.21C167.428 143.21 168.827 142.968 170.063 142.485C171.313 142.002 172.386 141.356 173.281 140.546C174.19 139.723 174.921 138.821 175.475 137.84L178.906 139.012C178.224 140.39 177.244 141.661 175.965 142.826C174.687 143.991 173.16 144.929 171.384 145.639C169.609 146.335 167.62 146.683 165.418 146.683ZM211.912 120.454L208.311 121.413C208.098 120.419 207.729 119.531 207.203 118.75C206.692 117.954 205.967 117.329 205.03 116.875C204.106 116.406 202.906 116.171 201.429 116.171C199.213 116.171 197.317 116.704 195.74 117.769C194.177 118.835 193.29 120.198 193.077 121.86C192.892 123.252 193.219 124.389 194.057 125.269C194.909 126.136 196.308 126.818 198.254 127.315L203.069 128.529C205.74 129.211 207.665 130.277 208.844 131.725C210.023 133.174 210.463 135 210.165 137.201C209.923 139.048 209.199 140.688 207.991 142.123C206.784 143.544 205.214 144.659 203.283 145.468C201.351 146.278 199.185 146.683 196.784 146.683C193.574 146.683 191.024 145.958 189.135 144.509C187.246 143.061 186.194 140.973 185.981 138.245L189.753 137.393C189.937 139.325 190.648 140.788 191.883 141.782C193.133 142.777 194.873 143.274 197.104 143.274C199.618 143.274 201.713 142.706 203.389 141.569C205.065 140.419 206.01 138.991 206.223 137.286C206.408 135.965 206.116 134.865 205.349 133.984C204.596 133.089 203.346 132.429 201.599 132.002L196.464 130.724C193.694 130.028 191.72 128.941 190.541 127.464C189.362 125.973 188.922 124.133 189.22 121.946C189.462 120.156 190.165 118.579 191.329 117.215C192.494 115.838 193.986 114.765 195.804 113.998C197.622 113.217 199.625 112.826 201.812 112.826C204.824 112.826 207.139 113.508 208.758 114.872C210.378 116.221 211.429 118.082 211.912 120.454ZM216.74 146.001L221.108 113.274H224.9L220.554 146.001H216.74ZM224.112 107.606C223.316 107.606 222.642 107.336 222.088 106.796C221.534 106.257 221.271 105.603 221.299 104.836C221.314 104.098 221.598 103.465 222.152 102.94C222.72 102.414 223.387 102.152 224.154 102.152C224.95 102.152 225.625 102.421 226.179 102.961C226.733 103.501 226.995 104.154 226.967 104.921C226.953 105.66 226.662 106.292 226.093 106.818C225.539 107.343 224.879 107.606 224.112 107.606ZM240.829 158.956C238.599 158.956 236.674 158.664 235.055 158.082C233.45 157.514 232.136 156.733 231.113 155.738C230.105 154.744 229.359 153.629 228.876 152.393L232.242 150.369C232.583 151.193 233.087 152.002 233.755 152.798C234.437 153.593 235.367 154.247 236.546 154.758C237.739 155.284 239.274 155.546 241.149 155.546C244.046 155.546 246.497 154.815 248.499 153.352C250.516 151.903 251.731 149.659 252.143 146.619L253.059 139.247H252.718C252.164 140.241 251.411 141.235 250.46 142.23C249.508 143.21 248.322 144.027 246.901 144.68C245.495 145.333 243.812 145.66 241.852 145.66C239.224 145.66 236.98 145.014 235.119 143.721C233.272 142.429 231.93 140.582 231.092 138.181C230.268 135.767 230.076 132.89 230.516 129.552C230.957 126.242 231.901 123.331 233.35 120.816C234.813 118.302 236.653 116.342 238.869 114.936C241.085 113.529 243.542 112.826 246.241 112.826C248.258 112.826 249.877 113.181 251.099 113.892C252.335 114.588 253.279 115.454 253.933 116.491C254.6 117.528 255.097 118.536 255.424 119.517H255.808L256.639 113.274H260.325L255.893 146.853C255.524 149.623 254.636 151.903 253.23 153.693C251.823 155.483 250.048 156.804 247.903 157.656C245.772 158.522 243.414 158.956 240.829 158.956ZM242.619 142.187C244.721 142.187 246.596 141.683 248.244 140.674C249.891 139.652 251.248 138.196 252.313 136.306C253.379 134.403 254.089 132.13 254.444 129.488C254.785 126.931 254.686 124.666 254.146 122.691C253.62 120.703 252.683 119.14 251.333 118.004C249.984 116.853 248.244 116.278 246.113 116.278C243.926 116.278 242.008 116.867 240.36 118.046C238.712 119.225 237.377 120.816 236.355 122.819C235.332 124.808 234.657 127.031 234.33 129.488C234.004 131.988 234.089 134.197 234.586 136.115C235.097 138.018 236.021 139.509 237.356 140.589C238.691 141.654 240.445 142.187 242.619 142.187ZM271.918 125.546L269.212 146.001H265.398L269.766 113.274H273.452L272.77 118.409H273.111C274.091 116.733 275.469 115.39 277.244 114.382C279.02 113.359 281.108 112.848 283.508 112.848C285.696 112.848 287.557 113.309 289.091 114.233C290.639 115.142 291.761 116.484 292.457 118.259C293.168 120.035 293.352 122.215 293.011 124.801L290.177 146.001H286.364L289.155 125.035C289.51 122.365 289.055 120.248 287.791 118.686C286.527 117.109 284.631 116.321 282.102 116.321C280.383 116.321 278.8 116.69 277.351 117.429C275.916 118.167 274.716 119.233 273.75 120.625C272.798 122.002 272.187 123.643 271.918 125.546Z" fill="#344054"/>
    <path d="M328.582 146.661C325.371 146.661 322.715 145.973 320.613 144.595C318.525 143.203 317.062 141.25 316.224 138.735C315.386 136.207 315.251 133.245 315.819 129.85C316.373 126.498 317.488 123.544 319.164 120.987C320.84 118.43 322.928 116.434 325.428 115C327.942 113.565 330.719 112.848 333.759 112.848C335.606 112.848 337.346 113.153 338.979 113.764C340.627 114.375 342.026 115.333 343.177 116.64C344.327 117.947 345.123 119.644 345.563 121.733C346.018 123.806 346.003 126.328 345.52 129.296L345.158 131.555H319.121L319.867 126.782H339.64C339.938 125.106 339.86 123.622 339.405 122.329C338.951 121.022 338.17 119.992 337.062 119.24C335.968 118.487 334.59 118.11 332.928 118.11C331.224 118.11 329.633 118.558 328.155 119.453C326.678 120.348 325.442 121.491 324.448 122.883C323.468 124.261 322.85 125.681 322.594 127.144L321.849 131.512C321.479 133.899 321.543 135.816 322.04 137.265C322.552 138.714 323.447 139.765 324.725 140.419C326.003 141.072 327.601 141.399 329.519 141.399C330.755 141.399 331.898 141.228 332.949 140.887C334.015 140.532 334.959 140.014 335.783 139.332C336.607 138.636 337.296 137.769 337.85 136.733L343.688 137.819C342.907 139.595 341.785 141.15 340.322 142.485C338.859 143.806 337.133 144.836 335.144 145.575C333.17 146.299 330.982 146.661 328.582 146.661ZM359.015 113.274L364.129 126.015L373.525 113.274H380.492L367.559 129.637L375.123 146.001H368.156L362.829 133.771L353.433 146.001H346.444L359.356 129.637L352.026 113.274H359.015ZM393.39 146.661C390.208 146.661 387.602 145.944 385.57 144.509C383.539 143.061 382.126 141.065 381.33 138.522C380.535 135.98 380.407 133.068 380.947 129.786C381.487 126.463 382.588 123.529 384.249 120.987C385.926 118.43 388.021 116.434 390.535 115C393.063 113.565 395.869 112.848 398.951 112.848C401.437 112.848 403.575 113.309 405.365 114.233C407.154 115.142 408.511 116.42 409.434 118.068C410.357 119.715 410.755 121.64 410.627 123.842H404.427C404.328 122.308 403.759 120.987 402.722 119.879C401.686 118.771 400.159 118.217 398.142 118.217C396.366 118.217 394.732 118.686 393.241 119.623C391.749 120.546 390.492 121.867 389.47 123.586C388.447 125.291 387.751 127.308 387.382 129.637C386.984 132.024 387.005 134.083 387.445 135.816C387.886 137.549 388.695 138.892 389.874 139.843C391.053 140.795 392.538 141.271 394.328 141.271C395.549 141.271 396.686 141.051 397.737 140.61C398.802 140.156 399.74 139.509 400.549 138.671C401.373 137.833 402.012 136.825 402.467 135.646H408.688C408.078 137.762 407.055 139.652 405.62 141.313C404.2 142.975 402.453 144.282 400.379 145.234C398.305 146.186 395.975 146.661 393.39 146.661ZM427.153 146.661C423.942 146.661 421.286 145.973 419.184 144.595C417.096 143.203 415.633 141.25 414.795 138.735C413.957 136.207 413.822 133.245 414.39 129.85C414.944 126.498 416.059 123.544 417.735 120.987C419.411 118.43 421.499 116.434 423.999 115C426.513 113.565 429.29 112.848 432.33 112.848C434.177 112.848 435.917 113.153 437.55 113.764C439.198 114.375 440.597 115.333 441.748 116.64C442.898 117.947 443.694 119.644 444.134 121.733C444.589 123.806 444.574 126.328 444.092 129.296L443.729 131.555H417.692L418.438 126.782H438.211C438.509 125.106 438.431 123.622 437.976 122.329C437.522 121.022 436.741 119.992 435.633 119.24C434.539 118.487 433.161 118.11 431.499 118.11C429.795 118.11 428.204 118.558 426.726 119.453C425.249 120.348 424.013 121.491 423.019 122.883C422.039 124.261 421.421 125.681 421.165 127.144L420.42 131.512C420.05 133.899 420.114 135.816 420.611 137.265C421.123 138.714 422.018 139.765 423.296 140.419C424.574 141.072 426.173 141.399 428.09 141.399C429.326 141.399 430.469 141.228 431.521 140.887C432.586 140.532 433.53 140.014 434.354 139.332C435.178 138.636 435.867 137.769 436.421 136.733L442.259 137.819C441.478 139.595 440.356 141.15 438.893 142.485C437.43 143.806 435.704 144.836 433.715 145.575C431.741 146.299 429.553 146.661 427.153 146.661ZM461.48 102.365L454.236 146.001H447.865L455.109 102.365H461.48ZM475.821 102.365L468.577 146.001H462.206L469.45 102.365H475.821ZM490.567 146.661C487.357 146.661 484.701 145.973 482.599 144.595C480.511 143.203 479.048 141.25 478.21 138.735C477.371 136.207 477.237 133.245 477.805 129.85C478.359 126.498 479.474 123.544 481.15 120.987C482.826 118.43 484.914 116.434 487.414 115C489.928 113.565 492.705 112.848 495.745 112.848C497.592 112.848 499.332 113.153 500.965 113.764C502.613 114.375 504.012 115.333 505.163 116.64C506.313 117.947 507.109 119.644 507.549 121.733C508.004 123.806 507.989 126.328 507.506 129.296L507.144 131.555H481.107L481.853 126.782H501.626C501.924 125.106 501.846 123.622 501.391 122.329C500.937 121.022 500.156 119.992 499.048 119.24C497.954 118.487 496.576 118.11 494.914 118.11C493.21 118.11 491.619 118.558 490.141 119.453C488.664 120.348 487.428 121.491 486.434 122.883C485.454 124.261 484.836 125.681 484.58 127.144L483.835 131.512C483.465 133.899 483.529 135.816 484.026 137.265C484.538 138.714 485.433 139.765 486.711 140.419C487.989 141.072 489.587 141.399 491.505 141.399C492.741 141.399 493.884 141.228 494.935 140.887C496.001 140.532 496.945 140.014 497.769 139.332C498.593 138.636 499.282 137.769 499.836 136.733L505.674 137.819C504.893 139.595 503.771 141.15 502.308 142.485C500.844 143.806 499.119 144.836 497.13 145.575C495.156 146.299 492.968 146.661 490.567 146.661ZM520.868 126.569L517.672 146.001H511.301L516.755 113.274H522.871L521.976 118.6H522.38C523.417 116.853 524.831 115.461 526.621 114.424C528.425 113.373 530.555 112.848 533.013 112.848C535.229 112.848 537.089 113.316 538.595 114.254C540.115 115.177 541.187 116.555 541.812 118.387C542.452 120.22 542.551 122.485 542.111 125.184L538.616 146.001H532.246L535.591 125.951C535.974 123.579 535.662 121.725 534.653 120.39C533.659 119.041 532.075 118.366 529.902 118.366C528.425 118.366 527.054 118.686 525.79 119.325C524.54 119.964 523.481 120.902 522.615 122.137C521.763 123.359 521.18 124.836 520.868 126.569ZM560.239 146.661C557.057 146.661 554.451 145.944 552.42 144.509C550.388 143.061 548.975 141.065 548.18 138.522C547.384 135.98 547.256 133.068 547.796 129.786C548.336 126.463 549.437 123.529 551.099 120.987C552.775 118.43 554.87 116.434 557.384 115C559.913 113.565 562.718 112.848 565.8 112.848C568.286 112.848 570.424 113.309 572.214 114.233C574.003 115.142 575.36 116.42 576.283 118.068C577.207 119.715 577.604 121.64 577.476 123.842H571.276C571.177 122.308 570.609 120.987 569.572 119.879C568.535 118.771 567.008 118.217 564.991 118.217C563.215 118.217 561.582 118.686 560.09 119.623C558.599 120.546 557.342 121.867 556.319 123.586C555.296 125.291 554.6 127.308 554.231 129.637C553.833 132.024 553.854 134.083 554.295 135.816C554.735 137.549 555.545 138.892 556.724 139.843C557.903 140.795 559.387 141.271 561.177 141.271C562.398 141.271 563.535 141.051 564.586 140.61C565.651 140.156 566.589 139.509 567.398 138.671C568.222 137.833 568.861 136.825 569.316 135.646H575.538C574.927 137.762 573.904 139.652 572.469 141.313C571.049 142.975 569.302 144.282 567.228 145.234C565.154 146.186 562.824 146.661 560.239 146.661ZM594.002 146.661C590.792 146.661 588.135 145.973 586.033 144.595C583.945 143.203 582.482 141.25 581.644 138.735C580.806 136.207 580.671 133.245 581.239 129.85C581.793 126.498 582.908 123.544 584.584 120.987C586.26 118.43 588.348 116.434 590.848 115C593.363 113.565 596.14 112.848 599.179 112.848C601.026 112.848 602.766 113.153 604.4 113.764C606.047 114.375 607.446 115.333 608.597 116.64C609.748 117.947 610.543 119.644 610.983 121.733C611.438 123.806 611.424 126.328 610.941 129.296L610.579 131.555H584.542L585.287 126.782H605.06C605.358 125.106 605.28 123.622 604.826 122.329C604.371 121.022 603.59 119.992 602.482 119.24C601.388 118.487 600.01 118.11 598.348 118.11C596.644 118.11 595.053 118.558 593.576 119.453C592.098 120.348 590.863 121.491 589.868 122.883C588.888 124.261 588.27 125.681 588.015 127.144L587.269 131.512C586.9 133.899 586.964 135.816 587.461 137.265C587.972 138.714 588.867 139.765 590.145 140.419C591.424 141.072 593.022 141.399 594.939 141.399C596.175 141.399 597.319 141.228 598.37 140.887C599.435 140.532 600.38 140.014 601.204 139.332C602.027 138.636 602.716 137.769 603.27 136.733L609.108 137.819C608.327 139.595 607.205 141.15 605.742 142.485C604.279 143.806 602.553 144.836 600.564 145.575C598.59 146.299 596.402 146.661 594.002 146.661Z" fill="#FD853A"/>
    </g>
    <path d="M288 20.001C288 17.001 291 11.001 288 2.00098M295.5 23.501C299.833 19.3343 308.7 9.20098 309.5 2.00098M298.5 30.501C301.167 30.501 308.3 29.101 315.5 23.501" stroke="#FEB273" stroke-width="4" stroke-linecap="round" stroke-linejoin="round"/>
    <path d="M123.313 165.233C121.63 172.893 110.605 186.531 113.219 211.193M106.125 152.091C92.7233 160.299 64.4002 181.201 58.3199 199.136M102.39 132.535C95.5807 131.04 76.5811 130.614 55.056 140.875" stroke="#FEB273" stroke-width="5" stroke-linecap="round" stroke-linejoin="round"/>
    <defs>
    <filter id="filter0_n_138_75" x="31.6953" y="30.1514" width="664.023" height="128.804" filterUnits="userSpaceOnUse" color-interpolation-filters="sRGB">
    <feFlood flood-opacity="0" result="BackgroundImageFix"/>
    <feBlend mode="normal" in="SourceGraphic" in2="BackgroundImageFix" result="shape"/>
    <feTurbulence type="fractalNoise" baseFrequency="2 2" stitchTiles="stitch" numOctaves="3" result="noise" seed="3393" />
    <feColorMatrix in="noise" type="luminanceToAlpha" result="alphaNoise" />
    <feComponentTransfer in="alphaNoise" result="coloredNoise1">
    <feFuncA type="discrete" tableValues="1 1 1 1 1 1 1 1 1 1 1 1 1 1 1 1 1 1 1 1 1 1 1 1 1 1 1 1 1 1 1 1 1 1 1 1 1 1 1 1 1 1 1 1 1 1 1 1 1 1 1 0 0 0 0 0 0 0 0 0 0 0 0 0 0 0 0 0 0 0 0 0 0 0 0 0 0 0 0 0 0 0 0 0 0 0 0 0 0 0 0 0 0 0 0 0 0 0 0 0 "/>
    </feComponentTransfer>
    <feComposite operator="in" in2="shape" in="coloredNoise1" result="noise1Clipped" />
    <feFlood flood-color="rgba(0, 0, 0, 0.25)" result="color1Flood" />
    <feComposite operator="in" in2="noise1Clipped" in="color1Flood" result="color1" />
    <feMerge result="effect1_noise_138_75">
    <feMergeNode in="shape" />
    <feMergeNode in="color1" />
    </feMerge>
    </filter>
    </defs>
    </svg>
    