<svg width="125" height="130" viewBox="0 0 125 130" fill="none" xmlns="http://www.w3.org/2000/svg">
    <path opacity="0.5" d="M117.006 0.742432C116.592 0.0276159 115.674 -0.212625 114.957 0.205838C114.239 0.624302 113.994 1.54301 114.408 2.25782L115.707 1.50013L117.006 0.742432ZM79.2182 67.6302L78.9571 66.1548L78.9571 66.1548L79.2182 67.6302ZM0.55603 116.584C-0.0877989 117.109 -0.186942 118.054 0.334588 118.694L8.83341 129.133C9.35494 129.774 10.2997 129.868 10.9435 129.343C11.5873 128.818 11.6865 127.873 11.1649 127.232L3.61041 117.953L12.9365 110.347C13.5803 109.822 13.6794 108.877 13.1579 108.236C12.6364 107.596 11.6917 107.502 11.0478 108.027L0.55603 116.584ZM115.707 1.50013L114.408 2.25782C119.496 11.0334 123.722 24.6691 120.218 37.1882C116.767 49.5206 105.654 61.2846 78.9571 66.1548L79.2182 67.6302L79.4792 69.1055C106.921 64.0993 119.25 51.7623 123.107 37.9809C126.912 24.3861 122.313 9.895 117.006 0.742432L115.707 1.50013ZM79.2182 67.6302L78.9571 66.1548C62.2682 69.1994 50.5244 67.0444 42.9234 62.6113C35.3433 58.1905 31.7641 51.4459 31.4136 44.9487C31.0615 38.4226 33.9551 32.121 39.4228 28.4924C44.8604 24.8838 53.1055 23.757 63.7503 28.1373L64.3282 26.75L64.9061 25.3626C53.5774 20.7009 44.2378 21.7063 37.7734 25.9963C31.3389 30.2665 28.0129 37.6299 28.4175 45.1276C28.8236 52.6542 32.9774 60.292 41.4002 65.2044C49.8022 70.1046 62.3314 72.2338 79.4792 69.1055L79.2182 67.6302ZM64.3282 26.75L63.7503 28.1373C74.2604 32.4622 80.1111 40.4476 81.95 49.919C83.8001 59.4477 81.5999 70.5815 75.7431 81.0431C64.0482 101.933 37.9235 119.846 1.65693 116.251L1.50034 117.744L1.34376 119.236C38.8289 122.952 66.0916 104.41 78.3594 82.4965C84.484 71.5564 86.9091 59.7013 84.8956 49.331C82.871 38.9034 76.3695 30.0798 64.9061 25.3626L64.3282 26.75Z" fill="#D26D60"/>
    </svg>
    